<?xml version="1.0" encoding="utf-8"?>
<!-- Generator: Adobe Illustrator 22.0.1, SVG Export Plug-In . SVG Version: 6.00 Build 0)  -->
<svg version="1.1" id="Capa_1" xmlns="http://www.w3.org/2000/svg" xmlns:xlink="http://www.w3.org/1999/xlink" x="0px" y="0px"
	 viewBox="0 0 1296.9 301.4" style="enable-background:new 0 0 1296.9 301.4;" xml:space="preserve">
<g>
	<path d="M152.3,152.7H62.9V301H0V4.3L152.3,152.7z M157.2,153h89.4V4.7h62.9v296.8L157.2,153z"/>
	<path d="M635.5,153c0,42-14.2,77.3-42.7,105.7c-28.5,28.4-63.8,42.6-105.9,42.6c-33.6,0-66.7-14.4-99.5-43.1
		c-32.8-28.7-49.1-63.8-49.1-105.2c0-41.8,14.3-77,42.9-105.5c28.6-28.5,63.8-42.8,105.8-42.8c40.9,0,75.9,14.4,105,43.1
		C620.9,76.5,635.5,111.6,635.5,153z M572,153c0-20.8-6.9-39.6-20.8-56.5c-16.1-19.1-36.9-28.7-62.6-28.7c-22.6,0-42.1,8.3-58.5,25
		c-16.4,16.7-24.6,36.7-24.6,60.1c0,19.7,6.9,38.1,20.8,54.9c16.3,20.1,37,30.2,62.3,30.2c22.6,0,42.1-8.2,58.6-24.7
		C563.8,196.9,572,176.8,572,153z"/>
	<path d="M961.2,88L844.3,301.4L684,4.7h70.2L799.4,88H961.2z"/>
	<path d="M1135.1,213.4l-45.2,83.3h-70.2L1180,0l116.9,213.4H1135.1z"/>
</g>
</svg>
