<?xml version="1.0" encoding="utf-8"?>
<!-- Generator: Adobe Illustrator 22.0.1, SVG Export Plug-In . SVG Version: 6.00 Build 0)  -->
<svg version="1.1" id="Capa_1" xmlns="http://www.w3.org/2000/svg" xmlns:xlink="http://www.w3.org/1999/xlink" x="0px" y="0px"
	 viewBox="0 0 1366 768" style="enable-background:new 0 0 1366 768;" xml:space="preserve">
<style type="text/css">
	.st0{fill-rule:evenodd;clip-rule:evenodd;fill:#33CB33;}
	.st1{fill-rule:evenodd;clip-rule:evenodd;}
	.st2{fill:none;stroke:#221E1F;stroke-width:0.9533;stroke-miterlimit:22.9256;}
	.st3{font-family:'OCRAExtended';}
	.st4{font-size:116.36px;}
</style>
<g>
	<path class="st0" d="M704.3,276.2l155.3,294.1c208.3-0.8,263.5,3.1,483.4-2.7L1191.5,67.1C981.1,132.8,981.3-31.5,704.3,276.2"/>
	<path class="st0" d="M23,113.5l4.5,455.4l192.1-1.8v0l345.8-0.4l99.3-219.8c-23.4-82.3-155.4-229.1-319.7-185.3
		C183.2,204.9,118.5-26.3,23,113.5"/>
	<path class="st1" d="M536.9,342.4c42.7,0,77.3,36.3,77.3,81.1c0,44.8-34.6,81.1-77.3,81.1c-42.7,0-77.3-36.3-77.3-81.1
		C459.6,378.7,494.2,342.4,536.9,342.4z M538.9,278.3c79.5,0,144,65,144,145.3c0,80.2-64.5,145.3-144,145.3s-144-65-144-145.3
		C394.9,343.3,459.3,278.3,538.9,278.3z"/>
	<path class="st2" d="M536.9,342.4c42.7,0,77.3,36.3,77.3,81.1c0,44.8-34.6,81.1-77.3,81.1c-42.7,0-77.3-36.3-77.3-81.1
		C459.6,378.7,494.2,342.4,536.9,342.4z M538.9,278.3c79.5,0,144,65,144,145.3c0,80.2-64.5,145.3-144,145.3s-144-65-144-145.3
		C394.9,343.3,459.3,278.3,538.9,278.3z"/>
	<polygon class="st1" points="852.3,562.1 702,276.2 774.1,276.6 813.5,360.3 964.5,360.9 	"/>
	<polygon class="st2" points="852.3,562.1 702,276.2 774.1,276.6 813.5,360.3 964.5,360.9 	"/>
	<polygon class="st1" points="1192.2,67 1012.6,570.2 1096.2,569.6 1141.9,472.6 1317,471.9 	"/>
	<polygon class="st2" points="1192.2,67 1012.6,570.2 1096.2,569.6 1141.9,472.6 1317,471.9 	"/>
	<polygon class="st1" points="25.4,272.2 26.3,568 88.8,567.9 88.1,419 174.6,419 	"/>
	<polygon class="st1" points="328,564.6 327.8,267 265.4,267.1 265.3,417.7 178.7,417.7 	"/>
	<text transform="matrix(1 0 0 1 24.8374 680.4154)" class="st3 st4">P</text>
	<text transform="matrix(1 0 0 1 129.8013 680.4154)" class="st3 st4">A</text>
	<text transform="matrix(1 0 0 1 234.7651 680.4154)" class="st3 st4">M</text>
	<text transform="matrix(1 0 0 1 339.7271 680.4154)" class="st3 st4">P</text>
	<text transform="matrix(1 0 0 1 444.6909 680.4154)" class="st3 st4">L</text>
	<text transform="matrix(1 0 0 1 549.6538 680.4154)" class="st3 st4">O</text>
	<text transform="matrix(1 0 0 1 654.6157 680.4154)" class="st3 st4">N</text>
	<text transform="matrix(1 0 0 1 759.5801 680.4154)" class="st3 st4">A </text>
	<text transform="matrix(1 0 0 1 934.8242 680.4154)" class="st3 st4">2</text>
	<text transform="matrix(1 0 0 1 1039.7871 680.4154)" class="st3 st4">0</text>
	<text transform="matrix(1 0 0 1 1144.75 680.4154)" class="st3 st4">1</text>
	<text transform="matrix(1 0 0 1 1249.7129 680.4154)" class="st3 st4">8</text>
</g>
</svg>
