<?xml version="1.0" encoding="utf-8"?>
<!-- Generator: Adobe Illustrator 22.0.1, SVG Export Plug-In . SVG Version: 6.00 Build 0)  -->
<svg version="1.1" id="Capa_1" xmlns="http://www.w3.org/2000/svg" xmlns:xlink="http://www.w3.org/1999/xlink" x="0px" y="0px"
	 viewBox="0 0 509 480.7" style="enable-background:new 0 0 509 480.7;" xml:space="preserve">
<style type="text/css">
	.st0{fill:#FFC433;}
</style>
<g>
	<g>
		<path class="st0" d="M78.4,414.3c0,18.5,0,37.1,0,55.6c-0.4-0.1-0.5-0.4-0.8,0c-0.5,1.1,1,0.1,0.8,0.8c0.1,2.3-0.2,3.1,0,4.9
			c-0.1-0.1-1.1-0.8-1.2,0c0.6,0.1,0.7,0.8,1.2,1.2c-0.4,0.1-1.5-0.4-1.4,0.2c0.6,0.8-0.2,2.5-1.3,3.3c-0.6-1.1-0.1,0.2-1.4,0
			c1.3-1.3-0.2-2-1.2-2.7c0.8-1.1,1.7-0.6,2-1.8c-0.2,0-0.7-0.1-0.2-0.2c-0.1-1.2-1.1,0.1-1.5-1c0.2-1.2-0.4-1.8-1.2-2.1
			c0,0.2,0,0.4-0.2,0.4c-0.4-0.5-0.4-0.7,0-1.2c-1.5-0.4-0.1,0.7-0.6,1.2c-0.1,0.1-1.1-0.1-1.3,0c-0.2,0.4,0.5,1.3-0.6,1.2
			c0.4,1.2,0.7,0.4,1.3,1.2c0.8-0.6-0.1-0.6,0.6-2c0,0,0.1,0,0.2,0c-0.5,1.1,1.8,1.1,0.6,2c0-0.2-0.4-0.2-0.6-0.2
			c0,0.2,0.4,0.2,0.6,0.2c0.4,0.1,1.3,1.3,0,1.2c0.1-1.4-1.2,0.2-1.4-0.6c-1,0.5,0.7,1.3,0,1.5c-0.4,0-0.4-0.2-0.7-0.4
			c0-0.2,0-0.6,0-0.8c-1,1.1-1.4-0.2-2.4,0.2c0.2,0.2,0.5,0.8,0,1c0.7,1.1,1.4-1.1,2.1,0c-1.1,0.4,0.1,1.3-1,1.5
			c-1.8,0.2-2-0.1-2.4-0.4c-0.7-0.5-1.2-0.4-0.8-1.2c1-0.4,0.2,1,1.2,0.6c-0.6-1.8,1.1-1.3,0.8-2.7c1.1,0.1-0.4-1.3-0.2-0.2
			c-0.7-0.2-0.8-0.8-1.8-0.6c0.5,0.8-1.9,0.5-0.6,1.2c0-0.4,0.5-0.4,0.6,0c-1,1-2.3-0.4-1.3-1.2c-1.3,1-2.5,0.7-3.2-0.6
			c0.2,1.1,0,1.3,0.2,2c1.8,0.7,1.5-0.4,3,0.6c-0.4,0.1-1.1-0.1-1.2,0.4c0.6-0.1,0.7,0.4,1.2,0.2c0.5,1.1-1,0.2-0.8,1
			c1.3,1.2,1.3,1.2,2.1,2.4c-2,0.6-3.2-1-3.9-0.6c1.1,0.5-1.9,1-2.1,0.4c0.7,0,1.3-0.2,1.5-0.6c-1.9-0.2-3.3,0.1-4.5-1.3
			c1.4-0.2,1.3-1.4,2.4-2.6c-2-0.1-1.8,2.3-3.6,2.4c-0.1,0.6,0.4,0.7,0.2,1.2c-0.2,0-0.2,0.1-0.2,0.4c-0.8,0.5-0.7,0.7-1.5,0.8
			c-3.6,0.7-8.7,0-13.2,0c-13.5,0-27.8,0-40.5,0c0.1-4.3-0.4-9.4,0.2-13.2c21.1,0,43.8,0,63.9,0c0.1,0.4-0.1,0.7-0.2,1
			c-0.2,0.1-0.6,0.2-0.6,0.6c0.5,0.1,0.6-0.2,0.6-0.6c1.1,0.5,0.1-1.1,1-1c1,0.4-0.1,1.5,1.4,1c1-1.9-1.8-3.3-1.2-4.9
			c0.1-0.2,1,0.2,1-0.2c0,0-0.8-0.1-1-0.4c-0.5-2,0.5-5.1,0-8.7c-19.5,0-43.7,0-65.1,0c0.1-4.3-0.5-9.4,0.2-13.2
			c21.6,0,43.2,0,64.9,0c0-4.4,0-8.8,0-13.3c-21.6-0.1-44,0.5-65.1-0.2c0-4.3,0-8.6,0-12.9C26.3,414.3,52.3,414.3,78.4,414.3z
			 M8.8,419.8c0-0.2,0-0.5,0-0.6c-0.2,0-0.4,0-0.6,0c0,0.1,0,0.4,0,0.6C8.4,419.8,8.6,419.8,8.8,419.8z M34.9,472.6
			c0.4,0,0.8,0.1,0.8-0.2C35.4,472.3,34.9,472.3,34.9,472.6z M46,475.9c0.2,0,0.6,0,0.6-0.2C46.3,475.6,46,475.6,46,475.9z
			 M46,476.8 M48.5,472.9c0.5-0.2-0.1-1.4,0.6-1.5c1.3-0.4,1.3,1.1,2,0.4c-0.2-1.1-1.1-1.5-2.4-1.5c0.2,1.5-1.8,0.8-1.8,2.1
			C46.9,472.9,47.6,472.9,48.5,472.9z M47.5,473.9c0-0.2,0-0.5,0-0.6c-0.2,0-0.4,0-0.6,0c0,0.1,0,0.4,0,0.6
			C47.2,473.9,47.3,473.9,47.5,473.9z M49.1,479c0.2-0.1,0.5,0.4,0.6,0C49.7,478.6,49.1,478.5,49.1,479z M49.9,478.3 M52.3,478.6
			 M52.9,472.9 M53.2,475.3 M56,479.8c-0.2,0-0.6,0-0.6-0.2c0.1-0.1,0.4-0.1,0.2-0.4C55.8,479.3,56,479.4,56,479.8z M56,471.4
			 M56,477.1 M56.6,472.9c0.2-0.1,0.6,0,0.6-0.4C56.9,472.7,56.6,472.7,56.6,472.9z M57.1,480.2 M57.4,472.6 M57.4,473.9
			 M58.3,477.1c-0.2,0.4-0.4,0.8-0.4,1.5C58.9,478.7,59.3,477.2,58.3,477.1z M59.9,474.1c-0.5-0.1-0.6,0.2-1,0.4
			c0.4-1.4-1.4,0.2,0,0C58.6,475.9,60.2,475.3,59.9,474.1z M58.9,472 M60.5,467.8c-0.4,0.6,0.7,1.3,0.8,0.6
			C60.9,468.3,60.8,467.9,60.5,467.8z M60.5,478c0.4,0,0.8,0,0.8-0.4C60.9,477.8,60.5,477.7,60.5,478z M60.7,477.1
			c0.4,0,0.8,0.1,1-0.2C61.3,476.8,60.8,476.7,60.7,477.1z M61.7,473.9c0.7,0,1.1-0.1,1.2-0.6c-0.2-0.2-0.7-0.4-1.2-0.4
			c-0.1-1-1.3,0.2,0,0C61.7,473.3,61.7,473.5,61.7,473.9z M61.3,478.6 M61.9,468.4c0.2,0,0.6,0,0.6-0.2
			C62.3,468.2,61.9,468.2,61.9,468.4z M63.7,471.7c0.5-0.8,0-1,0.4-2.1c-0.4,0-0.5-0.4-1-0.2c-0.4,0.6-0.7,1.2-0.6,2.4
			C63,471.7,63.3,471.7,63.7,471.7z M63.1,472.6c0-0.1,0-0.4,0-0.6c-0.1,0-0.4,0-0.6,0c0,0.2,0,0.5,0,0.6
			C62.7,472.6,63,472.6,63.1,472.6z M63.7,480.2c0.2-1-0.8-0.6-0.6-1.5c0.5-0.2,0-0.4,0,0C61.9,478.5,63,480.4,63.7,480.2z
			 M63.7,472c0,0.2,0,0.5,0,0.6c0.6,0.1,0.6-0.1,0.6-0.6c1.3,0.4,0.1-0.8,0,0C64.2,472,63.9,472,63.7,472z M66.2,473.5
			c-0.7-0.5-1.5-0.6-2.1-0.2c0.7,0,0.6,1,1.5,0.8C65.6,473.7,66.1,473.9,66.2,473.5z M64.6,477.1c-0.1,0-0.2,0-0.4,0
			C64.3,477,64.6,476.8,64.6,477.1z M64.6,478.6 M65,469.9c-0.2,1.2,1,0.7,1.4,0.2C65.6,470.4,65.7,469.8,65,469.9z M66.2,472
			c-0.7,0-1.2,0.1-1.2,0.6C65.6,472.7,66.1,472.6,66.2,472z M65.8,461.5 M66.2,471.1 M66.2,472.9c0.2-0.1,0.6,0,0.6-0.4
			C66.5,472.7,66.2,472.7,66.2,472.9z M66.4,473.3c-0.2,0.6,0.8,1.3,1,0.6C66.9,473.7,66.8,473.3,66.4,473.3z M67,465.7 M67,480.4
			 M67.6,467.8C67.6,466.9,66.4,468,67.6,467.8C67.7,468.8,68.9,467.6,67.6,467.8z M67.6,475.3c-0.1,0-0.4,0-0.2-0.2
			C67.5,475.1,67.7,475.1,67.6,475.3z M67.6,459.4 M67.6,461.5 M67.6,462.5 M68.2,475.9 M68.6,463.9 M70.3,472.6
			c0.1-1.1,0.2-2.3-0.6-3c-0.5,1.3-0.5,1.2-0.4,2.7C69.9,472.3,70.1,472.4,70.3,472.6z M69.4,457 M69.4,457.9c0.2-0.1,0.6,0,0.6-0.4
			C69.9,457.7,69.5,457.6,69.4,457.9z M69.4,467.2 M69.4,480.2 M70,477.1c0,0.2,0,0.4-0.2,0.4C69.7,477.2,69.7,477.1,70,477.1z
			 M70.3,468.4 M70.7,461.9c0.2-0.1,0.4,0.4,0.6,0C71.3,461.5,70.7,461.4,70.7,461.9z M70.9,466.6C72.2,466.9,71,465.7,70.9,466.6
			C70.5,466.7,70.9,467,70.9,466.6z M70.9,470.8c0.1,0.4,0.4,0.2,0.6,0C71.5,470.5,71,470.4,70.9,470.8z M72.7,477.4
			c-0.2,0.6-0.8,0.8-1.4,0.8c-0.2-1,0.2-1.5,0.8-1.8C71.9,477.9,72.6,476.8,72.7,477.4z M71.9,472.9c0,0.2-0.1,0.4-0.4,0.4
			C71.5,473,71.5,472.9,71.9,472.9z M72.1,478.6c0,0.2-0.4,0.2-0.6,0.4C71.5,478.6,71.9,478.7,72.1,478.6z M71.9,467.6 M72.5,469.6
			C72.8,469.5,72.4,469.2,72.5,469.6C71,469.2,72.7,471,72.5,469.6z M74.3,471.4c-1.1,0.5-1.7-1.2-2.1-0.2c0.5,0.2,1,0.5,1,1.2
			C73.7,472.2,74.4,472.2,74.3,471.4z M73.3,467.6c-0.4-0.1-0.4-0.5-0.8-0.4c-0.2,0.7-0.5,1.1,0.2,1.5
			C72.4,467.8,73.2,467.9,73.3,467.6z M73.1,479.2c1.2,0.4-1,1.7-0.6,0.4C72.7,479.4,73.1,479.6,73.1,479.2z M72.5,479.6
			 M73.9,466.9c0.2-1-1.1-1.1-1.2-0.2C73.3,466.7,73.3,467.6,73.9,466.9z M73.7,470.5c0-0.2,0-0.5,0-0.6c-0.2,0-0.5,0-0.6,0
			c0,0.1,0,0.4,0,0.6C73.2,470.5,73.4,470.5,73.7,470.5z M73.7,464.2 M75.1,472.6c0,1-0.8,1.2-1.4,1.5c1-0.4,0.2,1,1.2,0.6
			c0.6-0.5-0.6-1.1,0.8-0.8c0.2-0.7-0.1-0.8-0.2-1.3c1.5,0.5,0.6-1.3,0.2-1.8c0.2,1-0.2,1.2-0.2,1.8
			C75.3,472.6,75.2,472.6,75.1,472.6z M73.9,478 M74.8,478.6 M75.1,468.2 M75.1,476.8c0.2-0.1,0.6,0,0.6-0.4
			C75.6,476.6,75.2,476.5,75.1,476.8z M77,469.6c0-0.4-0.2-0.6-0.4-0.8c-0.2,0-0.4,0-0.6,0c0,0.4-0.1,0.6-0.4,0.8
			C76.2,469.6,76.5,469.6,77,469.6z M76,452.8 M76,473.3 M76.4,465.1c-0.5,0.8,1,1,0.8,0.4C76.9,465.4,76.9,465.1,76.4,465.1z
			 M76.4,461.9 M77,466.6 M77,467.2 M78.2,479.2c0-0.2-0.4-0.2-0.6-0.2c0.1-0.5,0.4-0.8,0.6-1.3c0.6,0.4,0.1,1.9,0.2,2.7
			c-1,0.2-0.6-0.8-1.4-0.6c0-0.4,0.4-0.4,0.2-0.8c0.1,0,0.2,0,0.4,0C77.6,479.2,77.9,479.1,78.2,479.2z M77.6,465.4 M77.6,468.8
			c0.2-0.1,0.5,0.4,0.6,0C78.2,468.4,77.6,468.3,77.6,468.8z"/>
		<path class="st0" d="M93.3,459.1c0.2,0.2,0.4,0.5,0.4,1c1.4,0.1,2-0.6,1.5-1.5c1.1-0.1,0.7,0,0.8,1c0.4,2.4-0.4,5.8,0,7.1
			c2.6,0.6,5.5,0.2,8.1,0.4c0.5,1.2,0.1,1.4,0.4,2.6c1.2-0.1-0.2-1.2,0.6-1.8c0.8-0.6,2.1-0.7,3.3-0.8c-0.2,0.6-0.8,1-0.4,1.4
			c0.6-0.4,1.4-0.4,1.2-1.4c0.6,0.4,3.8-0.5,3.1,0.8c-1.3,0.8-0.2-0.4-1.2-0.2c-0.5,0-0.2,0.7-1,0.6c-0.1-0.2-0.4,2.4,0.6,2
			c-1.1,0-1.9,1.5-2.1,0.4c-0.5,0-0.2,0.7-0.8,0.6c-0.2,0.8,0.6,0.6,0.6,1.2c1.5,0.2,1.2-1.5,3-1.2c0.5,0.7,1.7,0.7,1.5,2.1
			c0.7,0.1-0.2-1.4,0.8-1c0,0.7-0.5,1,0,1.5c-0.6,0.1-1.3,0.1-1.2,0.8c-0.8,0.4-0.5,2.1-2.4,2.1c0.4,0.5,1,0.6,1,1.5
			c1.2,0.4,1.1-0.7,2-0.6c0,0.4-0.1,0.6-0.2,0.8c-0.6-0.1-0.6,0.2-0.6,0.6c0.5,0.1,0.5-0.2,0.6-0.6c0.2,0,0.6,0,0.8,0
			c-0.8,0.8,0.5,0.4,0.6,1c-1.1,0.5-1.7-0.4-1.8,0.6c-1.2,0.2-1.1-1-2.4-0.6c-0.1-0.2-0.2-0.6-0.6-0.6c-0.1,0.5,0.2,0.6,0.6,0.6
			c-0.1,1.2-2.1,0.2-3,0.2c-7.7,0-16.4,0.7-24.4,0.4c0-22,0-44.1,0-66.1c4.4,0,8.8,0,13.2,0c0,14.1,0,28.3,0,42.3
			c0.1,1.2-1.3,0.6-0.8,2.1C94.1,458.4,93.6,458.7,93.3,459.1z M84.4,478.6c-0.2,0-0.5,0-0.6,0c0,0.4-0.2,0.4-0.4,0.6
			C83.9,479.2,84.5,479.3,84.4,478.6z M84.9,444.2 M86.7,478 M87.3,415.3c0.2,0,0.6,0,0.6-0.2C87.7,415.1,87.3,415.1,87.3,415.3z
			 M87.6,469.6 M89.1,470.2 M89.5,479.2 M90.3,478 M91.5,478 M92.7,463.1 M92.7,463.9 M93.6,476.8c-0.5,0-0.7,0.2-1,0.6
			C93.3,477.4,93.5,477.2,93.6,476.8z M93.6,460.7 M96.9,479.6c0.6-0.6,0.2-1.3,0.6-1.5c1.1-1,1.7,1.2,2.4-0.2
			c-1.1-0.2-1.4-1.1-2.4-1.2c-0.4,1.2-2.3,1-2.1,2.6C95.8,479.4,96.2,479.7,96.9,479.6z M97.2,479.8c0.2,0,0.6,0,0.6-0.2
			C97.5,479.6,97.2,479.6,97.2,479.8z M99.3,469.9c-0.8,0.1-1.4,0.6-1.5,1.5C98.7,471.3,99,470.5,99.3,469.9z M98.7,474.5 M99,476.2
			 M99,477.2c0.2-0.1,0.6,0,0.7-0.4C99.4,477,99.1,476.8,99,477.2z M99.3,471.1 M100.9,468.2c-0.8-0.2-1.5,1.2-1,1.4
			C100,468.9,101,469.1,100.9,468.2z M100.3,473.5 M101.5,475.1c-0.4,0.6,0.7,1.3,0.8,0.6C101.8,475.6,102.1,474.9,101.5,475.1z
			 M101.5,470.5 M101.5,479.6 M102.7,468.8 M103.8,476.2c0,0.4,0.5,0.4,0.6,0C104.1,476.2,104,475.8,103.8,476.2z M103.8,479.6
			 M104.1,471.5 M104.1,474.7 M104.4,478 M104.4,479.6 M105.6,471.7c0-0.2,0-0.4,0-0.6c-0.2,0-0.6,0-1,0c0,0.2,0,0.4,0,0.6
			C105,471.7,105.4,471.7,105.6,471.7C105.9,472.2,106,471.7,105.6,471.7z M105,479.2c0,0.4,0.5,0.4,0.6,0
			C105.3,479.3,105.1,478.9,105,479.2z M105.6,474.7 M106.2,477.8c0-0.2,0-0.5,0-0.6c-0.2,0-0.4,0-0.6,0c0,0.1,0,0.4,0,0.6
			C105.9,477.8,106,477.8,106.2,477.8z M106.6,479.2c0-0.4,0.4-0.4,0.2-0.8c-0.2,0-0.4,0-0.6,0c0,0.4-0.4,0.4-0.2,0.8
			C106.1,479.2,106.3,479.2,106.6,479.2z M106.2,475.9 M106.6,468.4 M106.6,473.5 M107.8,473.3c0-0.4,0.2-0.4,0.2-0.6
			c-0.1-0.1-1.1-0.8-1.2,0c0.2,0,0.4,0.2,0.4,0.6C107.3,473.3,107.5,473.3,107.8,473.3z M107.4,474.1 M107.4,478 M107.4,478.6
			 M107.8,469 M108,473.9c0.2-0.1,0.6,0,0.6-0.4C108.4,473.6,108,473.5,108,473.9z M109.8,475.3c0-0.7-0.6-1.4-1.2-0.8
			C108.6,475.3,109.1,475.4,109.8,475.3z M108.9,477.4 M109.2,469 M109.5,472.7c-0.1,0.4,0.1,1.2,0.2,0.6
			C109.9,472.8,109.7,472.1,109.5,472.7z M111.1,472.1c-0.4,0-0.4-0.1-0.4-0.4c-0.2,0-0.4,0-0.6,0
			C109.7,472.4,111.2,472.7,111.1,472.1C111.4,471.8,111,471.7,111.1,472.1z M110.4,474.7c0.4,0,0.5,0.5,0.7,0
			C111.1,474.5,110.5,474.3,110.4,474.7z M111.1,472.9 M111.7,479.2c0-0.1,0-0.4,0-0.6c-0.2,0-0.5,0-0.6,0c0,0.2,0,0.5,0,0.6
			C111.2,479.2,111.4,479.2,111.7,479.2z M111.3,471.1 M121.5,467.8c0.1,0.4,1,0.5,1,0c0.7,0.2,1.1-0.1,0.8-0.8
			c12.6-0.1,26.3,0,37.8,0c-0.2,3.1,0.8,7.2-0.8,8.3c1.5,1,0.4,3.2,0.8,4.3c-0.5,1.1-2.1-0.1-2.4,0.8c-10.5,0-22.3,0.1-34.5-0.6
			c0-0.2-0.2-0.4-0.4-0.6c1.3,0,0.7-1.2,0.6-1.8c-0.4,0.4-0.6,1.1-0.6,1.8c-0.4,0.1-0.6,0.5-0.6,1c-1.1-0.2-3,0.4-3.6-0.4
			c0.6-0.1,0.6-0.5,0.2-0.8c-0.4,0-0.2,0.5-0.2,0.8c-1.1,0.4-4.9,0.8-5.5-0.2c0.6,0,1,0,1.2,0.2c0.6-0.4,0.1-1.7,0.6-2
			c-0.5-0.2-2.7-2-1.2-3.1c0.2,0.5,0.4,0,0,0c0.1-0.4,0.5-0.5,0.4-1.2c0.1,0,0.2,0,0.2,0c0,0.6,0.1,1,0.6,1c0.1,0.8,1.3-0.4,0,0
			c0-0.4,0-0.6,0-1c0.8,0.1,1.5,0.1,1.5-0.6c-0.2-0.8-1,0.2-1.5,0c0.4-2-1.9,0.2,0,0c0,0.2,0,0.5,0,0.6c-0.1,0-0.4,0-0.6,0
			c-0.4-0.5-1.2-0.6-0.8-1.8c0.4,0.1,0.5,0,0.6-0.2c-0.1-0.5-0.2,0-0.6,0c-0.4-1.7-1.5-0.1-2.1-0.6c-0.7-1.4,1.7-0.4,1.2-1.9
			c-0.1-1-1,1.4-1.2,0.4c-0.2-1.2,3.6-1.3,3.3-0.6c1.3-0.4,0-1,0-1.8c1.3,0,2.6,0,3.9,0c-0.2,0.7-0.5,1.3-0.4,2.4
			c1.1,0.1,0.7-1.5,1.5-0.6c0-0.7-0.5-1-0.4-1.8c1.1,0.6,2-0.6,2.1,0.6c-0.1,0-0.4,0-0.2,0.2C122.1,467.8,121.8,467.8,121.5,467.8z
			 M114.1,474.7c-0.7,0.1-1.8,1.7-1.5,0C113.5,474.9,113.5,474.2,114.1,474.7z M112.9,467.2 M114.1,467.2c0,0.4-0.4,0.2-0.6,0.4
			C113.5,467.2,113.8,467.3,114.1,467.2z M113.7,473.9 M114.1,469.9c0.2-0.1,0.6,0,0.6-0.4C114.4,469.7,114.1,469.6,114.1,469.9z
			 M114.6,471.7c-0.2,0-0.4-0.2,0-0.2C114.6,471.5,114.6,471.6,114.6,471.7z M114.9,475.9 M115.8,476.6 M118,469.6
			c-1.1,0.5-0.2-1-1.2-0.6c-0.1,1,0.1,1.7,0.6,2.1C117.5,470.5,118,470.4,118,469.6z M118.8,478.4c0-0.2,0-0.5,0-0.6
			c-0.2,0-0.6,0-0.8,0c0,0.1,0,0.4,0,0.6C118.2,478.4,118.6,478.4,118.8,478.4z M118.6,476.6 M118.6,479 M118.8,475.3
			c0.5,0.1,0.6,0.5,1.2,0.4C120.5,474.8,118.7,474.8,118.8,475.3z M120,471.1c0.2-0.7,2.3-1.2,1.2-2.1c-0.5,0.7-1.1,1.2-2,0.6
			C119.3,470.3,119.8,470.5,120,471.1z M120.4,472.7c-0.1-0.4,0-0.8-0.4-1c0,0.5-0.5,0.5-0.6,1C119.8,472.7,120,472.7,120.4,472.7z
			 M119.8,478.6c0.2,0,0.6,0,0.6-0.2C120.1,478.4,119.8,478.4,119.8,478.6z M120.4,473.9 M120.6,476.2c0.2-0.1,0.6,0,0.6-0.4
			C120.9,476,120.6,476,120.6,476.2z M120.6,476.8c0.2-0.1,0.6,0,0.6-0.2C120.9,476.6,120.6,476.6,120.6,476.8z M121.2,474.5
			c0.5,0,0.7-0.1,0.6-0.6c-0.4,0-0.6-0.1-0.8-0.4c-0.5,0.7-0.1,2.1,0.6,1.2C121.3,474.7,121.2,474.7,121.2,474.5z M122.1,479
			c0.1-0.5,1-0.1,1-0.6c-0.4-0.2-0.7-0.4-1.3-0.4c0-0.2,0-0.4,0-0.6c-0.2,0-0.6,0-0.8,0c0,0.2,0,0.4,0,0.6c0.2,0,0.6,0,0.8,0
			C121.8,478.5,121.8,478.9,122.1,479z M122.5,473.5c0-0.6-0.4-1-1-0.8c0,0.2,0,0.6,0,0.8C121.8,473.5,122.1,473.5,122.5,473.5z
			 M121.8,472.3 M122.1,470.5c0,0.4,0.5,0.4,0.6,0C122.4,470.5,122.3,470.1,122.1,470.5z M122.1,477.2 M122.5,475.9 M126.1,468.4
			c-0.5-0.1-0.7-0.4-1.2-0.6c0.1,2-1.5-0.2-1.8,2.1C124.4,471.4,125.6,470.2,126.1,468.4z M123.7,477.4 M125.5,474.1
			c0.5-0.7-1.1-0.8-1-0.2c0.2,0,0.4,0,0.4,0.2C125,474.1,125.2,474.1,125.5,474.1z M125.5,476.2c0.1-0.8-0.1-1.3-1-1.2
			c0,0.4,0,0.8,0,1.2C124.9,476.2,125.1,476.2,125.5,476.2z M124.9,471.5 M125.1,472.9 M126.1,472.1c0.2-0.1,0.6,0,0.6-0.4
			C126.4,471.8,126.1,471.7,126.1,472.1z M126.1,477.2c0.7,0.5,0.8-1.1,0.2-1c0,0.2,0,0.4-0.2,0.4
			C126.1,476.7,126.1,477,126.1,477.2z M126.3,475.1C126.2,474.6,125.9,475.1,126.3,475.1C126.1,476.2,127.2,475.1,126.3,475.1z
			 M126.9,469.9 M126.9,478.6 M127.2,475.9 M128.2,469.4c0-0.2,0-0.4,0-0.6c-0.2,0-0.5,0-0.6,0c0,0.2,0,0.4,0,0.6
			C127.7,469.4,128,469.4,128.2,469.4z M127.6,475.3c0.2,0,0.8,0.1,0.8-0.2C128.1,475.1,127.6,474.9,127.6,475.3z M129,475.9
			C127.5,475.6,128.7,476.8,129,475.9c0.4,0,0.4-0.6,0-0.6c-0.1-0.4-0.4,0.1,0,0C129,475.5,129,475.8,129,475.9z M128.8,477.2
			C127.6,477.2,128.8,478.5,128.8,477.2c0.2,0,0.2-0.1,0.2-0.4c0.5-0.1,0-0.4,0,0C128.8,476.8,128.8,477,128.8,477.2z M128.8,478.4
			 M130.8,475.3c0-0.1,0-0.4,0-0.6c-0.1,0-0.4,0-0.6,0c0,0.2,0,0.5,0,0.6C130.5,475.3,130.7,475.3,130.8,475.3z M136.5,473.3
			c0.2-0.1,0.6,0,0.6-0.4C136.9,473,136.5,472.9,136.5,473.3z M142.8,476.8 M144,479.2 M144.4,477.4 M147.7,476.6 M148.3,473.3
			c0.7,0.6,1.9,0.2,2.1-0.6c-0.4,0-0.2-0.4-0.4-0.6c1.3-0.4,1.5,0.5,2.4,0.6c0.6-1-1.1-1.9-2.4-1.8c0,0.4,0,0.7,0,1.2
			C149,472,148.3,472.3,148.3,473.3z M148.3,474.5c0.2-0.1,0.6,0,0.6-0.4C148.6,474.2,148.3,474.1,148.3,474.5z M151.2,479.8
			c0-0.1,0-0.4,0-0.6c-0.2,0-0.4,0-0.6,0c0,0.2,0,0.5,0,0.6C150.9,479.8,151,479.8,151.2,479.8z M154,479.2 M154.6,468.4
			 M157.3,479.8c1-1.4,2.9-1.9,2.6-3.6c-0.6,0.8-2,1-2,2.4C156.6,478.4,156.5,479.4,157.3,479.8z M157.5,469.4
			c0-0.4,0.2-0.4,0.4-0.6c-0.5,0-0.5-0.4-1-0.4c0,0.4,0,0.6,0,1C157.2,469.4,157.3,469.4,157.5,469.4z M157.3,477.8 M158.1,473.5
			 M159.1,470.2 M159.7,477.8c0.2,0.8-0.5,0.7-0.4,1.4C160.5,479.6,160.5,477.8,159.7,477.8z M159.9,474.7 M160.3,472.3
			c0,0.4,0.5,0.4,0.6,0C160.5,472.3,160.4,471.8,160.3,472.3z"/>
		<path class="st0" d="M169.2,414.3c0.1,0.4,0.4,0.2,0.4,0c1,0,2,0,3,0c0,0.4,0,0.6,0,1c-0.4-0.1-0.5,0-0.6,0.2
			c0.4,0.1,0.6,0,0.6-0.2c0.8,0.1,1.1-0.1,1-1c1.9,0,3.8,0,5.7,0c0,1.3,0.1,2.9-0.6,3.3c1.4,0.8,0.2,4,0.2,5.7
			c0,8.4,0.6,18.4,0.4,26.7c-0.8,0-1.4,0.7-1,1.2c-1.2-0.1-1.9,0.4-1.8,1.5c1.8,1.1,1.8-1,2.4-1.2c1,4.6-0.5,7.5,0.4,11.4
			c-0.5-0.5-1.2-0.5-1,0.6c-0.5,0-0.7,0.5-0.6,1.2c1.2,0.4,1.1-0.8,0.6-1.2c0.4-0.1,0.7-0.6,1,0c0.5,1.4-0.2,6.4-0.4,7.7
			c-0.2,0-0.2,0.1-0.2,0.4c-1-1-0.6,1.1,0,0c0.2,0,0.2-0.1,0.2-0.4c0.5,2.4,0.5,6.8,0,9c-2.5,0-5,0-7.5,0c-1,0-0.4-1.5-1.5-1.4
			c-0.8-0.1-1.5,1.9-3.8,1.4c0.1-3.1-0.7-5.3,1.8-6.3c0.5,0.7,0.5,2,1.8,2.1c-0.2-1.1-1.1-1.3-1.2-2.4c2-0.4,0.4-0.7,0.2-1.9
			c1.1-0.1,1.5,0.1,1.8,0.6c0.2-1.7,1.2-0.4,2.1-0.2c-0.7-1.2,0.5-1.9,0-2.4c0,0.2-0.5,0.4-0.6,0c0.8-0.2,1-1.1,1.8-1.2
			c-0.4-1-1.4,0.4-1.8-0.4c0,0.5,0,1.1,0,1.5c-1.9-0.2-2.6,0.4-3.6-1.5c1-0.4,0.2,1,1.2,0.6c-0.5-1.9,1.3-1.7,0.6-3
			c0.2,0,0.2,0.2,0.6,0.2c0.2-0.6-0.8-1.3-0.6-0.2c-1.3-0.7-2-0.5-2.7,0.2c0.4,0.1,0.8,0,1,0.4c-1.2-0.1-1.3,1-2.4,1
			c0.2-1,1.2-1.2,1.2-2.5c-1.2-0.4-0.1,1.4-1.2,1c-0.5-2.3,0.6-3.9,0.8-4.5c-1.7-3.2-0.4-6.7-0.6-8.7c-0.5,0.2-0.7-4.3,0.6-4.3
			c-0.4,0-0.8,0.1-0.8-0.2c-1.2-3.7,0.8-10.5,0-14.7c0.4,0.1,0.5,0.5,1.2,0.4c-0.2-1.1,0.1-1.4,0.2-2.1c-0.5-0.1-0.7,0.5-0.8,0
			c-1.1-1.8-0.4-3.4-0.6-5.7c0-0.4,0.2-0.2,0.6,0c-0.6-0.6-1.1-2.9-0.4-3.6c1-1.1,0.1,0.8,1.2,0.6c0.8-1.2-1-1.9,0.6-2.5
			c-0.4,0-0.8,0.1-0.8-0.2c0.6-0.4,1-1.1,1.8-1.2c-0.8-0.6-2.7-0.2-1.8,1.2c-2.5,0.2-0.6-1.8-0.6-2.4c0-0.1-0.6-1-0.6-1.2
			c-0.1-0.8,0-1.4,0-2.5C167,414.3,168.1,414.3,169.2,414.3z M166.2,467.8c1.7,0.4,0.1,0.5,0.4,1.2c0.4,1.1,2,1.7,2,2.1
			c0.1,0.8-1.4,0.7-0.8,1.8c-1.2,0.4-0.5-1.1-1.5-1C166.2,471,165.6,469,166.2,467.8z M166.2,473.9c1,0,0.8-1,2.1-0.6
			c-0.4,0.7-1.3,0.8-2.4,0.8c0-0.7,0-1.4,0-2.1c0,0,0.1,0,0.2,0C166.9,472.7,166.1,472.9,166.2,473.9z M166.2,436 M166.2,459.1
			c0,0.1,0,0.4,0,0.6c0.5,0.1,0.6-0.2,0.6-0.6c1.2-0.1,0-1.3,0,0C166.6,459.1,166.5,459.1,166.2,459.1z M166.2,463.6
			c0.6,0.1,1-0.1,1-0.6c1.2,0.2,0-1,0,0C166.6,463.1,166.3,463.3,166.2,463.6z M166.8,418.6 M166.8,428.2 M168.9,459.1
			c1.5-1.4-0.8-2.1-0.6-3.9c-1-0.1-1.3,0.4-1.5,1c1.4,0.4,1.2,1.8,1.2,3C168.4,459.1,168.6,459.1,168.9,459.1
			C168.9,460,170.1,458.8,168.9,459.1z M168.6,463.9c-0.7,0.6-1.3-0.2-1.8,0.4c0.6,0.2,1,0.7,1.5,0.8
			C168.5,464.7,168.7,464.5,168.6,463.9z M169.2,426.9c-0.6,0-1.2,0-1.8,0c0-0.8-1.2,0.4,0,0C167,428.7,169.2,427.6,169.2,426.9z
			 M169.2,414.9c-0.6,0.2-1.5,0.2-1.8,1C168.4,415.9,169.4,416,169.2,414.9z M167.4,459.7 M167.8,460.6c-0.6,1.2,1.3,1.2,1.4,0.6
			C168.8,460.9,168.1,460.9,167.8,460.6z M167.8,441.1 M168.4,462.7c-0.1,0.5-0.5,0.5-0.6,1C168.4,463.9,169.1,462.8,168.4,462.7z
			 M168,423.4c0,0.8,0.1,1.3,1,1.2C169.4,424.1,168.8,423.4,168,423.4z M168.9,441.7c0-0.4-0.1-0.7-0.6-0.6c0,0.4-0.1,0.8,0.2,1
			C168.6,441.8,168.7,441.7,168.9,441.7z M168.9,418.6c0-0.5,0-1.1-0.6-1c0,0.2,0,0.4,0,0.6C168.6,418.3,168.7,418.5,168.9,418.6z
			 M168.4,454.3c0.2,0,0.6,0,0.6-0.2C168.7,454,168.4,454,168.4,454.3z M168.4,459.7 M168.6,452.5 M168.9,416.5 M168.9,462.1
			 M168.9,463.9c0.2,0,0.6,0,0.6-0.2C169.3,463.6,168.9,463.6,168.9,463.9z M168.9,470.8 M168.9,476.8c0.2-0.1,0.6,0,0.6-0.4
			C169.3,476.6,168.9,476.5,168.9,476.8z M169.2,460.3 M169.8,478.3c0-0.1,0-0.4,0-0.6c-0.1,0-0.4,0-0.6,0c0,0.2,0,0.5,0,0.6
			C169.4,478.3,169.7,478.3,169.8,478.3z M169.5,416.8 M169.5,461.5 M169.5,464.8c0,0.2,0.5,0.4,0.6,0
			C169.8,464.8,169.7,464.4,169.5,464.8z M169.5,473.9 M171.7,475.1c-1.2,0.2-1.3-1.2-2.1-0.4C169.5,475.5,171.7,475.8,171.7,475.1z
			 M169.8,456.8c0.2-0.1,0.6-0.1,0.6-0.4C170.3,456.5,169.9,456.4,169.8,456.8z M170.1,458.5C170.6,458.3,170.1,458.2,170.1,458.5
			C169.7,458.7,170.1,458.9,170.1,458.5z M170.1,415.9 M170.1,418.3 M170.7,444.8c0-0.2,0-0.5,0-0.7c-0.2,0-0.4,0-0.6,0
			c0,0.2,0,0.5,0,0.7C170.4,444.8,170.5,444.8,170.7,444.8z M170.1,460.9 M171.3,425.5c0.1-1.1,1.8-0.6,1.5-2.1
			c-1.3,0.2-1,1.2-2.5,0.6C170.6,424.7,171.1,424.9,171.3,425.5z M170.4,459.1c0.2-0.1,0.6,0,0.7-0.4
			C170.8,458.9,170.5,458.8,170.4,459.1z M170.4,476.2 M170.7,418.9C170.3,419.1,170.7,419.2,170.7,418.9c0.4,0.1,0.6,0,0.6-0.2
			c0.8,0.2,1.5-2,0.4-1.8c0.5,1-0.2,0.7-0.4,1.8C171,418.5,170.8,418.6,170.7,418.9z M170.7,415.5 M172.3,423.1
			c-0.8-0.7,0.4-3.2-1-3.3c0.6,1.5-1.4,2.9,0,3.9C171.1,422.7,171.8,422.7,172.3,423.1z M171.1,426.7 M171.1,467.6 M171.3,451.6
			 M171.3,454.6 M171.3,455.5 M172.5,477.1c-0.2,0-0.2,0.1-0.2,0.4c-1.3-0.4-0.1,0.8,0,0C172.5,477.4,172.5,477.3,172.5,477.1
			c0.4,0.4,1.5,0.4,1.5-0.6c-0.5,0-1.1,0-1.5,0c-0.4-0.8-1.5,0.4,0,0C172.5,476.7,172.5,477,172.5,477.1z M172.3,462.1
			c-0.5,0.7,1,0.8,0.8,0.4C172.7,462.3,172.7,462,172.3,462.1z M172.3,421 M172.3,448.9 M172.3,465.4c1.3-0.6,0.4,1.2,1.4,0.8
			c-0.6-1.1,0.5-0.7,0.4-2c1.3-0.1-0.4-1.8,0,0C173.7,464.8,172.4,464.6,172.3,465.4z M172.5,457.9 M172.5,460.9
			c0.2-0.1,0.6,0,0.6-0.4C172.9,460.7,172.5,460.6,172.5,460.9z M174.1,473.3c-0.6,0-0.7-0.4-1.2-0.4c-0.1,1,0.6,1.2,0.8,1.8
			C173.5,473.9,174.2,474,174.1,473.3z M172.9,421.6 M172.9,422.5c0.4-0.1,0.8,0,0.8-0.4C173.3,422.2,172.9,422.2,172.9,422.5z
			 M172.9,463.3 M174.3,459.7c-0.4-0.4-0.5-0.1-0.8,0c-0.2-0.5-0.4,0,0,0C173.5,460.1,174.3,460.1,174.3,459.7z M173.5,452.5
			c0,0.4,0.5,0.4,0.6,0C173.7,452.5,173.6,452.1,173.5,452.5z M173.5,466.9 M173.7,479.8 M174.1,461.9 M174.1,463.1
			c0.2-0.1,0.6,0,0.6-0.4C174.4,462.8,174.1,462.7,174.1,463.1z M176.1,418.3c-0.4,0-0.7,0-1.2,0c0.7,2-1.9,3-0.2,3.9
			C174.5,420.3,175.8,419.8,176.1,418.3z M174.3,466.3 M174.3,476.8 M174.3,478.3 M175.8,425.5c0.1-1.3,1.5-1.3,1.5-2.7
			c-0.5,0-1.3-1.1-1.5-0.2c0.6,1-1.9-0.2-1.2,2C175.6,424.3,175.2,425.4,175.8,425.5z M174.6,458.2 M174.9,460.6
			c0.2,0,0.6,0,0.6-0.2C175.2,460.3,174.9,460.3,174.9,460.6z M174.9,461.2 M174.9,465.4 M175.5,469c0-0.6,0.8-0.4,0.6-1.2
			c-0.5,0.2-1-1-1.2,0c0.4,0.1,0.5,0.4,0.6,0.6C175.2,468.4,175.1,469,175.5,469z M176.1,458.2c-0.4,0-0.6-0.1-0.8-0.2
			c-0.5,0.6-0.1,2,0.6,1.2C175,458.9,176.3,458.7,176.1,458.2z M175.5,462.7c0.8,0,0.5,0.2,0.4,0.6c0.5-0.2,1.7,0,1.5-0.8
			c-1.4,0.4-1-1-2.1-0.6C175.1,462.3,175.5,462.3,175.5,462.7C175.1,462.9,175.6,463.1,175.5,462.7z M175.5,475.1
			c1.2-0.5,2.1-1,2.5-2.1c-0.4,0-0.6,0-1,0c-0.2,1.9-1.5-0.5-1.8,1C176.2,474.1,176.1,474.3,175.5,475.1z M175.5,456.8
			c-0.1,0.8,0.4,1.3,1.3,1.2C176.7,457.1,176.3,456.8,175.5,456.8z M177,417.7c-0.7-0.1-0.6-1.1-1.5-0.8c0,0.4,0,0.7,0,1.2
			C176,417.8,177,418.4,177,417.7z M175.5,465.1c0.4,0,0.5,0.5,0.6,0C176.1,464.8,175.6,464.7,175.5,465.1z M176.1,469.4
			c0.8,1.3-0.6,1.8-0.2,3.6C177.4,472.7,177.4,469.5,176.1,469.4z M176.8,415.9c0-0.4,0.5-0.7,0-1c0,0.6-0.8,0.2-1,0.6
			C176.2,415.5,176.5,415.8,176.8,415.9z M175.8,452.2 M175.8,456.2 M175.8,476.5c0.7,0.5,0.8-1,0.2-0.8c0,0.1,0,0.4-0.2,0.2
			C175.8,476.1,175.8,476.4,175.8,476.5z M176.1,461.5 M176.8,466.3c0.2,1-0.5,0.8-0.4,1.5C177.4,468.3,177.3,466.3,176.8,466.3z
			 M177,454c0-0.2,0-0.5,0-0.6c-0.2,0-0.4,0-0.6,0c0,0.1,0,0.4,0,0.6C176.7,454,176.8,454,177,454z M176.4,454.9 M176.8,418.3
			c-0.1,0.4-0.6,0.7,0,1C176.8,418.9,177.3,418.5,176.8,418.3z M176.8,464.8c0,0.2,0.5,0.4,0.6,0C177,464.8,176.9,464.4,176.8,464.8
			z M177,472.6 M177.4,443.2 M178,471.1 M178.2,424.3 M178.2,432.6 M178.6,462.1"/>
		<path class="st0" d="M259.6,473.9c-0.6-1.3-1.9,0-1.8-1.8c1.2,1.4,2-1.5,1.8-2.4c0.2,0.1,0.5,0.4,0.6,0c0-0.5-0.8-1-0.6,0
			c-1.1-0.7-3-0.5-2.5,0.6c-1.1,0.4-0.1,1-1.4,1c1.2,0.4-0.1,1.4,0.6,2c0.5,0.8,1.7,1,1.8,2.1c-0.8-0.1-1,0.4-1,1.2
			c-1,0.2-0.6-0.8-1.2-1c-0.4,0.2,0.2,0.8-0.2,1.5c0.5,0.8,1.1-0.7,2.1-0.2c-1.4,1.4-3.1,1-4.3,2c1.1,1.7,2.3-0.6,3.3-0.8
			c1.2,0,0.7,1.7,1.8,1.8c0.8-0.6-0.7-1.3-0.8-1.8c1.2-1,0.4-0.8,0.2-2.5c1.9,0.6,1.7,0.1,2.7-0.2c1.3,0.5,0.7,2.9,0.8,4.5
			c-0.5-0.1-0.7,0.4,0,0.2c-1.9,0.1-5.2,0.6-7.5,0.4c-0.4-0.1-0.7-0.1-0.6-0.6c-1.1,0.7-3.2,0.6-5.1,0.6c0-2.4,0-4.9,0-7.2
			c0.6-0.5,1.3-1,1.8-1.4c0,0.5,0,1,0,1.4c1-0.1,1.3-1.4,0-1.4c-0.1-0.8,0.6-0.7,0.6-1.3c-0.4-0.4-1.9,0.7-2,1.5
			c-0.2-0.7-1.1-4.6,0.6-4.5c-0.1-1.1-0.8,0-1-0.6c0.4-7-0.7-17.2,0.6-22.2c0.4,0,0.2-0.2,0-0.2c-0.1-0.5-0.4,0,0,0
			c0,0.1,0,0.1,0,0.2c-1.1-0.7-0.6-2.5-0.6-3.6c-0.1-4.5,0.1-9,0-13.2c-9.5-0.6-21.9-0.4-32.1-0.4c-3.9,0-8.3,0.8-11.2,0
			c-1.1-0.2,0.1,0-0.6-0.8c-1.2,1.7-5.2,0.5-7.7,0.8c-0.6,4.4-0.4,9.4-0.4,14.4c0,5.7,0.5,12.9-0.6,16.3c1.3,2,0.4,7,0.4,8.7
			c-1.4-0.1-1.2,1.4-2.5,0.6c0,0.8,1.2,0.7,0.4,1.5c1-0.5,2.1-0.7,2.1-2.1c0.7,3.9,0,9.1,0.2,13.5c-4.4,0-8.8,0-13.2,0
			c0.8-4-1.9-11,3-12c0.1,1.1,1,1.4,1.5,2c-0.5,0.2,0,0.5,0,0c0.7-0.5-0.8-1.3-1-2c0.8-1.1,0.4-1.3,0-1.8c0.4-1.3,1.3-0.2,1.8-0.4
			c0.7-0.2-0.7-1,0.7-0.6c0,0.6,1.2-0.6,0.8,1c2-0.2-1-2.1,1.2-2.1c0-0.5-0.8-0.1-0.8-0.6c0.6-0.4,1.1-0.8,1.4-1.5
			c-0.4,0-0.7,0-1.2,0c-0.1-0.4-0.4,0.1,0,0c-0.7,0.5-0.6,0.7-0.2,1.5c-2.1-0.2-3.7,0.4-3.7-1.5c1.3-0.2-0.2,0.6,0.6,0.6
			c0.4-0.7,0.6-1.7,1.2-2c0.1-1.1-0.8-1.2-1.4-1.5c-0.2,0.5-1,0.5-1.2,1c-0.5,0.1,0,0.4,0,0c1.3-0.1-0.1,1-1,0.6c0-0.4,0-0.6,0-1
			c0.6-0.1,0.6-0.5,0.4-1c-0.4,0.1-0.2,0.6-0.4,1c-1,0.2-1.1-0.4-1.8-0.2c1.1-1.3-0.4-1.9,1.2-2.1c-0.1-0.4-0.4-0.6-1-0.6
			c1.2-0.2,2.3-1.4,1.3-2.7c-1.1-0.1-0.7,1.5-1.5,0.6c0.5-1-0.1-2,0-3c0-0.4,0.6-0.7,0.6-0.6c0-0.7-0.7-1.3-0.6-1.8
			c0.2-1.1,1.8-1.8,0.6-1.9c-0.8-4-0.4-10.1-0.6-14c-0.5-1.1,1.1-0.2,1-1c-0.7-0.5-0.8-0.5-1-0.8c0.2-5.1-0.5-12.1,0.2-17.5
			c2.9,0.2,6.9-0.6,8.8,0.6c-1-1.2,2.6-0.4,3.9-0.2c17.6,0,45.4-0.7,65.3-0.4c-0.1,19.1,0.5,42.7-0.2,59.2
			C260.8,473.7,259.6,473.3,259.6,473.9z M184.5,461.6c1.5,0.1,0.4,1.2,0.4,1.2c0,1.2,1.2,1.1,2,2.4c0,1-0.7,1.1-0.8,1.8
			c-0.5,0-0.7-0.1-1-0.2c0.1-1.4-1.2-0.1,0,0c-0.1,0.4-0.4,0.5-0.2,1.2c0.6-0.2,0.8-0.8,1.8-0.6c-0.6,1.5-2.5,0.2-2.7,1.8
			c-0.8-1.3-0.5-3,0-4.3c0.4,0,0.6,0,1,0c-0.1-0.6-0.2-1.3-1.3-1.2c-0.2-1,0.1-1-0.2-2c0.8,0,0.6-1.1,1.8-0.6
			C185.6,461.5,185.3,461.6,184.5,461.6z M183.9,447.7 M184.9,449.3c-0.2,0-0.5,0-0.6,0c0,0.4-0.2,0.4-0.4,0.6
			C184.4,449.9,185,449.9,184.9,449.3z M183.9,464.8 M183.9,476.6 M185.1,420.2c0.5-0.7-1-0.8-0.8-0.4c0.1,0.1,0.4,0.1,0.2,0.4
			C184.7,420.2,184.9,420.2,185.1,420.2z M185.1,442.7c-0.5-0.1-0.7,0.1-0.8,0.6C184.7,443.3,185,443.1,185.1,442.7z M184.3,471.3
			 M184.5,447.5 M184.9,457.1c-0.5,0.8,1.3,0.8,0.8,0c0.5-0.2,0-0.4,0,0C185.5,457.1,185.1,457.1,184.9,457.1z M185.1,453.2
			c0.5,0,0.8-0.2,1-0.6C185.5,452.6,185.2,452.8,185.1,453.2C184.3,453.2,185.5,454.4,185.1,453.2z M186.9,457.9
			c-0.7,0.6-1.3-0.2-1.8,0.4c1,0.2,1.1,1.2,2.1,0.6C187.4,458.4,186.9,458.4,186.9,457.9c1.4,0.2,1.4-0.5,0-0.2
			c0.1-0.2,0.4-0.4,0.4-0.6c-0.8-0.5-1.4,0.8-0.4,0.6C186.9,457.8,186.9,457.9,186.9,457.9z M187.5,453.2c0.1-0.6,0.7-0.7,0.6-1.5
			c-1.7-0.2-0.7-1.3-1.4-2.4c-0.8,0-1.2,0.5-1.2,1.2c1.7,0.5,0.2,2.5,1.4,3C186.9,453.2,187.2,453.3,187.5,453.2
			C187.7,453.7,187.8,453.2,187.5,453.2z M185.5,475.1c0.4,0.5,1.1,0.5,1.2-0.2c1.3,0.6,2.3,3.1,3.9,2.4c-0.6-0.5,0-0.8,0.2-1.8
			c-1.8,1-1.1-2-2.4-2.4c-0.5,0.6-2.1,0.2-1.8,1.8C186.2,474.8,185.5,474.7,185.5,475.1z M185.5,477.8 M186.1,455
			c-0.2,1.3,1.1,0.8,1.4,0.4C187.1,455.1,186.8,454.9,186.1,455z M186.9,446.5 M186.9,448.4 M187.2,456.2c0.4,0,0.5,0.5,0.6,0
			C187.8,455.9,187.2,455.8,187.2,456.2z M188.4,459.1c0-0.1,0-0.4,0-0.6c-0.2,0-0.4,0-0.6,0c0,0.2,0,0.5,0,0.6
			C188.1,459.1,188.2,459.1,188.4,459.1z M187.8,465.2 M187.8,465.2 M190,469.1c-1.2,0.2-1.7-1.4-2.1,0
			C188.1,469.4,189.7,469.7,190,469.1z M187.8,472.1 M188.4,479c0-0.1,0-0.4,0-0.6c-0.2,0-0.4,0-0.6,0c0,0.2,0,0.5,0,0.6
			C188.1,479,188.2,479,188.4,479z M188.1,450.8c0.2-0.1,0.6,0,0.6-0.4C188.4,450.6,188.1,450.5,188.1,450.8z M188.4,452.8
			 M188.7,415.1c0,0.5,0.2,0.8,0.7,1C189.4,415.4,189.1,415.2,188.7,415.1z M188.7,424.9c0.5,0.5,1.2,0.5,1.3-0.2
			C189.5,424.7,188.8,424.6,188.7,424.9z M188.7,460.1 M189,470.3C188.8,469.8,188.7,470.3,189,470.3
			C189.3,470.8,189.4,470.3,189,470.3z M189,453.2 M189.4,461.9 M189.6,449 M190.6,471.5C189.3,471.3,190.4,472.4,190.6,471.5
			c0.8,0,1.8,0,1.8-1c-0.5,0-1.1,0-1.5,0c-0.4-0.8-1.5,0.4,0,0C190.9,471.1,190.6,471.1,190.6,471.5z M190,462.2 M191.4,456.8
			c0-0.1,0-0.4,0-0.6c-0.2,0-0.6,0-0.8,0c0,0.2,0,0.5,0,0.6C190.8,456.8,191.2,456.8,191.4,456.8z M192.4,459.5
			c-0.1-0.4,0-0.8-0.4-1c0,0.7-1.3,0.1-1.2,1C191.3,459.5,191.9,459.5,192.4,459.5z M190.8,416.6c0.2-0.1,0.6,0,0.6-0.4
			C191.2,416.4,190.8,416.2,190.8,416.6z M190.8,443 M191.2,455 M191.2,457.4c0,0.4,0.5,0.4,0.6,0
			C191.4,457.5,191.3,457,191.2,457.4z M192.6,467.6c-0.6-0.1-1.2-1.1-1.4,0C191.5,467.9,192.4,468.6,192.6,467.6z M191.4,461.6
			 M191.8,460.1 M191.8,468.8 M192,446.9 M192.4,453.8 M192.4,457.1c0.2-0.1,0.6,0,0.6-0.4C192.7,456.9,192.4,456.8,192.4,457.1z
			 M192.4,457.9c0.2,0,0.6,0,0.6-0.2C192.7,457.7,192.4,457.7,192.4,457.9z M192.6,417.4c0.4,0,0.5,0.5,0.6,0
			C193.2,417.2,192.7,417.1,192.6,417.4z M192.9,460.4 M193.2,419c0.2-0.1,0.6,0,0.6-0.4C193.5,418.7,193.2,418.6,193.2,419z
			 M193.2,455.3c0.2-0.1,0.6,0,0.6-0.4C193.5,455.1,193.2,455,193.2,455.3z M193.2,459.5 M193.8,462.8
			C193.4,462.9,193.9,463.2,193.8,462.8c0.1,0,0.2,0,0.4,0c0.4-0.5,0.4-1.2-0.4-0.6c0.4-1.3-0.8-0.1,0,0
			C193.8,462.3,193.8,462.6,193.8,462.8z M193.8,452.8c0.4,0,0.7,0,0.6-0.6c-1.2-0.5-1,2.1-0.2,1
			C193.9,453.2,193.8,453.2,193.8,452.8z M194.4,456.5c0-0.2,0-0.5,0-0.6c-0.2,0-0.6,0-0.8,0c0,0.1,0,0.4,0,0.6
			C193.8,456.5,194.1,456.5,194.4,456.5z M193.8,429.2 M195.1,466.4c0.2,0,0.4,0.2,0.6,0.4c-0.4-1.3-0.7-2-0.4-3.3c-0.2,0-0.6,0-1,0
			c1.1,1.2-1.4,3,0.4,3.9C194.7,467,194.7,466.5,195.1,466.4z M195.1,427.6c0-0.2,0-0.4,0-0.6c-0.4,0-0.7,0-1,0c0,0.2,0,0.4,0,0.6
			C194.4,427.6,194.7,427.6,195.1,427.6z M195.1,452c0-0.7-0.4-1-1-1c0,0.4,0,0.6,0,1C194.4,452,194.7,452,195.1,452z M194.1,459.1
			 M194.1,477.5 M194.4,470.3 M194.4,480.2c0.2,0,0.6,0,0.7-0.2C194.8,479.9,194.5,479.9,194.4,480.2z M194.7,457.1
			c0.5,0,0.8,0,1-0.4C195.3,456.6,194.5,456,194.7,457.1C194.3,457.2,194.7,457.5,194.7,457.1z M194.7,449.3c0.2,0,0.6,0,0.6-0.2
			C195.1,449,194.7,449,194.7,449.3z M194.7,462.2c0.7,0.5,0.8-1.1,0.4-1c-0.1,0.2-0.1,0.4-0.4,0.4
			C194.7,461.7,194.7,462,194.7,462.2z M195.1,458.9c0,0.2,0.5,0.4,0.6,0C195.3,458.9,195.2,458.4,195.1,458.9z M195.1,460.7
			c0,0.4,0.5,0.4,0.6,0C195.3,460.7,195.2,460.2,195.1,460.7z M195.3,479 M195.7,464.2 M197.7,427.4 M198.1,416.8c0,0.2,0,0.5,0,0.6
			c0.2,0.1,0.2,0.4,0.6,0.4c0.1-0.2,0.2-0.5,0.2-1c1.4,0.8,1.9,2.5,3.9,2.7c-0.1-1.1,0.4-1.4,0.6-2.1c-1.7,1.1-1.3-1.3-2-2
			c-1.4-0.1-2.3,0.4-2.5,1.4C198.6,416.8,198.3,416.8,198.1,416.8z M201,420.5c-0.2,0-0.4,0-0.6,0c0,0.2-0.2,0.4-0.4,0.6
			C200.5,421,201.1,421.1,201,420.5z M203.4,426.8 M204.9,421.4 M205.8,425.3 M249,445.9 M249,458.5 M249.4,451.6 M249.6,457.4
			 M249.6,467.3 M249.6,468.5 M250,475.6c-0.1,0.7,0,1.2,0.6,1.3c0-0.6-0.4-0.7-0.4-1.3c0.1,0,0.2,0,0.4,0c0.2-1,1.9-0.6,2.4-1.4
			c-1.3-0.4-1.5-0.1-3,0c-0.1,0.7,0,1.1,0.2,1.4C250.2,475.6,250.1,475.6,250,475.6z M250.8,444.5c0-0.2,0-0.5,0-0.6
			c-0.1,0-0.4,0-0.6,0c0,0.1,0,0.4,0,0.6C250.4,444.5,250.7,444.5,250.8,444.5z M251.2,479.3c0.4-0.5,0.4-0.7-0.4-1
			c0,0.4-0.4,0.5-0.2,1C250.8,479.3,250.9,479.3,251.2,479.3z M250.6,460.7 M251.4,469.9c0.1-0.2,0.4-0.4,0.7-0.2c0-0.4,0-0.6,0-1
			c-1,0.2-1.3-0.7-1.5,0.4C251.6,468.6,250.7,470.1,251.4,469.9z M251.2,466.1 M251.2,466.7 M251.8,473.6 M252.3,447.5 M252.3,448.4
			 M252.7,462.5c-0.4,0.6,0.7,1.4,0.8,0.6C253.2,463.1,253.1,462.6,252.7,462.5z M256.3,470.3c-0.1-1,0.7-1.2-0.4-1.5
			c0.2,1.8-1.4,0.2-2,1c0-0.7-0.1-1.2-0.6-1.2c-0.2,1,0.6,1.2,0,1.8C254.8,470.9,254.8,471.1,256.3,470.3z M253.3,467.6
			 M253.3,471.5 M253.9,474.2c0.2,0.8-0.5,0.7-0.4,1.4C255,476.2,255.2,474,253.9,474.2z M253.5,473.3 M255.1,467.9
			c-0.5-0.5-1.3-0.4-1.2,0.6C254.5,468.5,255,468.4,255.1,467.9z M254.1,458.3c0.6,0,1-0.1,1.2-0.4c-0.7-1,0-1.7-0.8-2.4
			c0,0.7-0.6,1-0.4,1.8C255.4,457.4,254.4,458.1,254.1,458.3z M254.1,453.4 M254.7,463.1C254.7,461.9,253.4,463.2,254.7,463.1
			C255,463.5,255.1,463.1,254.7,463.1z M254.5,460.4 M256.3,466.1c-0.4-1,0-0.7,0-1.9c-0.4,0-0.6-0.4-1.2-0.2
			c-0.1,1.1-0.8,1.4-0.4,2.4C255.7,466,255.6,466.5,256.3,466.1z M255.3,467.3c0-0.2,0-0.5,0-0.6c-0.1,0-0.4,0-0.6,0
			c0,0.1,0,0.4,0,0.6C255,467.3,255.2,467.3,255.3,467.3z M254.7,473.3c0.1,0.6,0.1,1.3,1,1.2C255.6,473.9,255.6,473.2,254.7,473.3z
			 M255.9,458.9c-0.1,0-0.4,0-0.6,0c0,0.2-0.2,0.4-0.2,0.6C255.6,459.5,256.1,459.5,255.9,458.9z M255.7,452.6
			C256.9,452.8,255.7,451.6,255.7,452.6C255.2,452.7,255.7,453,255.7,452.6z M255.7,457.1 M255.7,462.8c0,0.1,0,0.4,0,0.6
			c0.5,0.1,0.6-0.2,0.6-0.6c0.2,0,0.4,0,0.6,0c0-0.2,0-0.5,0-0.6c-0.5-0.1-0.6,0.2-0.6,0.6C256,462.8,255.9,462.8,255.7,462.8z
			 M255.7,467.3c0.6,0.1,1-0.1,0.8-0.6c1.3,0.2,0.1-1,0,0C256,466.7,255.8,467,255.7,467.3z M258,463.4c-0.4-1.2,1.2-0.5,1-1.5
			c-0.2-1.2-1.4-1.4-1.2-3c-1.1-0.1-1.3,0.5-1.5,1.2C258.4,460.1,256.6,462.8,258,463.4z M256.3,467.9c0.6,0.4,1.8,1.5,1.8,0
			C257.6,467.8,256.7,467.4,256.3,467.9z M256.9,463.4 M256.9,473.3 M257.1,464.2c-0.6,1.2,1.4,1.2,1.5,0.6
			C258.3,464.6,257.6,464.6,257.1,464.2z M258.4,466.7c-0.7-0.1-1.2,0-1.3,0.6C257.7,467.2,258.2,467.1,258.4,466.7z M257.1,470.3
			 M257.8,457.9c0.2,0,0.6,0,0.6-0.2C258.2,457.7,257.8,457.7,257.8,457.9z M258,456.2 M258.4,465.8 M258.4,467.6
			c0.2,0,0.6,0,0.6-0.2C258.8,467.3,258.4,467.3,258.4,467.6z M258.4,474.5 M258.6,463.1 M258.6,464 M259,468.5c0,0.2,0.5,0.4,0.6,0
			C259.2,468.5,259.1,468,259,468.5z M259.6,474.8c0,0.2-0.4,0.2-0.6,0.2C259,474.8,259.4,474.8,259.6,474.8z M259,477 M259,477.5
			 M261,478.7c-1.1,0.2-1.2-1.2-2-0.4C259,479.2,261.1,479.4,261,478.7z M259.2,460.4c0.2-0.1,0.6,0,0.6-0.4
			C259.6,460.2,259.2,460.1,259.2,460.4z M259.6,462.2C260,462,259.5,461.9,259.6,462.2C259.1,462.3,259.6,462.6,259.6,462.2z
			 M259.6,464.6 M259.8,454.1 M259.8,462.8c0.2-0.1,0.6,0,0.6-0.4C260.2,462.6,259.8,462.5,259.8,462.8z M259.8,479.9 M260.4,471.3
			 M260.8,458.5 M261,471.8 M261.4,473.6"/>
		<path class="st0" d="M290.6,416.1c0.2-1.2-1.7-0.2-1.2-1.5c1,0,1.9,0,3,0c0,0.5,0,0.8,0,1.2c0.5,0,0.2-0.7,0.2-1.2
			c1-0.2,2.1,0.5,2.1,0c0.5,0.1,0.2,0.7,0,1c0.6-0.7,3.2-1,4.2-1c0.6,0,0.2,0.8,0.7,1c0,0.2,0,0.4,0,0.6c0.4-0.1,0.2-0.6,0-0.6
			c0-0.2,0-0.6,0.2-0.6c1.5,0,0.2,1.2,1,2.1c0.5-1.1,0.7-3,3.6-2.5c0,0.5-0.1,0.7-0.4,1c1.5-0.2,2.3-1.4,4.5-1
			c0.4,1.2-1.3,0.5-0.8,1.8c-0.5,0.1-0.7-0.1-1-0.2c0.1-1.3-1.2-0.1,0,0c-0.1,0.4-0.4,0.6-0.2,1.2c0.8,0.1,0.8-0.7,1.8-0.6
			c-0.2,1.8-2.6,0.4-2.7,1.8c-0.4,0-0.7-0.1-0.6-0.6c-0.6,0-0.2,1-1,1c0.1,0.4,0.6,0.5,0.6,0.8c1.4-0.4,2-1.4,3.3-1.8
			c0.1,1,0.6,1.5,1.2,1.8c0.7-0.4-0.5-1.4-0.8-1.8c1.2-0.6,0.4-1.2,0.2-1.8c2-0.2,2.3-1.5,3.7,0c0.5-0.2,0.8-1.1,0-1.2
			c0.7-0.7,2.6-0.1,3.8-0.4c-0.4,0.5-0.2,1.3-0.2,2.1c0.8,0.4,0.8-2,1.2-0.4c1-0.4-0.4-1,0-1.8c0.8-0.1,1.1,0.1,1,1
			c0.5,0,0.1-0.8,0.6-1c0.5,0,0.6,0.2,0.2,0.6c-0.4,0.2,0,0.4,0,0c7.2-1.3,17-0.2,25.2-0.6c0,4.4,0,8.8,0,13.2
			c-11,0.1-21.7,0-32.1,0c-0.1,14.3,0.4,27.3-0.2,40.9c-0.7,0.5-1,1.3-1.3,2.1c-1,0-0.5-1.5-1.4-1.5c-0.1,1,1,0.7,0.6,1.8
			c0.4,0.1,0.8,0.1,0.8-0.2c0.2,0,0.5,0,0.7,0c0.5-0.4,0.2-1.3,0.6-1.8c0.8,1.8-0.4,2.6-0.6,3.8c0.8,0,1.3,1.9,0.6,2.5
			c-0.2-0.5-0.4,0,0,0c0.5,1.3,0.1,3.6,0.2,5.3c-0.6,0-0.6-0.2-0.2-0.6c-0.5,0.4-3,1.4-2.7-0.2c-1.1,1.3-4,0.7-6.1,0.6
			c-0.1-1-0.4-1.9-1.2-2.1c-1.7-0.4-1.4,1.2-2.4,1.5c-1,0-1-3.7,0-3.7c-1-0.2-0.6-1.9-0.4-2.6c1.3,0,0.7,1.9,2.1,1.8
			c-0.6-1-0.6-2.9-0.8-3.7c-0.1-0.5,1.8-0.5,1.8,0c-0.2,0-0.4,0.1-0.4,0.4c-0.4,0.1,0,0.4,0,0c0.2,0,0.4-0.1,0.4-0.4
			c0.2,0,0.4-0.5,0-0.6c0.4-0.7,1.5,0.2,1.8,0.6c0.7,0,0.7-1.1,0-1.2c0.4-0.6,1.4-0.5,1.2-1.8c1-0.1,1.4,0.2,2.1,0.4
			c0.6-0.1,0-1.3,0.6-1.5c-0.4-0.8-0.6,0.8-1.5,0.4c-0.6-0.4-0.2-1.5-1.2-1.5c0.5,1.2-1.7,1.3-1.8,2.7c-0.5,0-1.1-0.1-1.2,0.2
			c-0.6-1.2-2,0.1-1.8-1.8c1.3-0.2-0.2,0.6,0.6,0.6c0.1-1.2,1.1-1.4,1.2-2.7c0.2,0,0.2-0.4,0.2-0.6c-0.2,0-0.2,0.4-0.2,0.6
			c-0.4-1.2-4,0-2.4,0.4c-1.4,1-0.6-1.3-1-2.1c0.5,0.4,1.2,1,1.8,0.4c0-0.4-0.2-0.4-0.2-0.6c-0.4,0-2,0.4-1.3-1.2c0.1,0,0.2,0,0.4,0
			c0-0.4-0.4-0.2-0.4,0c-0.6-2-0.1-4.9,0-6.4c1,0.6,0.5,1.3,1,2.7c0.7-0.1,1.1-0.7,1.5-1.2c-1.3-0.6-1.1-3.7-2.5-2.4
			c-0.7-8.4,0-18.7-0.2-26.7c-11.4-0.8-19.4-0.1-32.7-0.4c0-4.4,0-8.8,0-13.2c2.7-0.1,5.3,0.4,7.5,0c0,0.5-0.1,0.7-0.4,1
			c2.6-1.5,7.1-0.6,11.8-1c-0.4,1.4-1.2,0.4-1.8,1.2c0.1,0.7,0.4,1.2,1.4,1c-1.1,0.4-1.1,1.7-2.4,1.8c0.2,0.6,1.4,1,1.5,0
			c0.6,1.3,3.2,1.5,2.4,3.3c1,0.2,0.8-0.5,1.8-0.4c0.5,1.4,1.4,2.1,3,2.5c0.2-0.4,0-1.7,0.6-2.1c-0.5-0.1-0.6,0.4-1.2,0.2
			c0-1.1-0.5-1.7-0.8-2.4c-1-0.2-1.2,0.4-1.9,0.4c0.5-1.2,0.2-1.4-0.8-1c-0.4-1.1-0.5-3.1-1.8-2.4c-0.1-1.9,2.4,0,1.4-1.8
			c1.2,0,0.7,1.7,1.9,1.8c1-0.5-0.8-0.8-0.4-1.8C288.7,415.4,289.2,416.2,290.6,416.1z M269.6,421.5c0.5-0.7-1.1-0.8-1-0.2
			c0.2,0,0.4,0,0.4,0.2C269.1,421.5,269.3,421.5,269.6,421.5z M271.1,415.5 M272.9,416.7c0.6-0.1,0.2,0.8,0.8,1
			C274.6,417.2,273.1,415.9,272.9,416.7z M273.1,424 M274.3,426.6c0-0.1,0-0.4,0-0.6c-0.2,0-0.6,0-0.8,0c0,0.2,0,0.5,0,0.6
			C273.7,426.6,274.1,426.6,274.3,426.6z M274.9,415.8c0-0.1,0-0.4,0-0.6c-0.1,0-0.4,0-0.6,0c0,0.2,0,0.5,0,0.6
			C274.6,415.8,274.8,415.8,274.9,415.8z M274.7,418.3 M275.3,417.3c0,0.2,0,0.4,0,0.6c0.5,0.1,0.6-0.2,0.6-0.6c0.5-0.1,0-0.4,0,0
			C275.6,417.3,275.5,417.3,275.3,417.3z M275.3,419.1 M276.1,415.8 M276.1,416.4 M277.4,420.3c-0.1-0.5,0-1-0.6-0.8
			c0,0.1,0,0.4,0,0.6C277.1,420,277.2,420.3,277.4,420.3z M277.4,418.9 M278,419.7 M278.6,421.8c0.2-0.1,0.6,0,0.6-0.4
			C279,421.6,278.6,421.6,278.6,421.8z M278.8,415.5 M279.2,420.6 M280,415.8c-0.4,1.2,1.5,0.2,1-0.2
			C280.7,415.3,280.1,415.7,280,415.8z M280.6,421.8c0.4,0,0.5,0.5,0.6,0C281.2,421.5,280.7,421.5,280.6,421.8z M281,419.1
			 M281,420.3 M281.6,423 M283.1,417.1c-0.2,0-0.5,0-0.6,0c0,0.2-0.4,0.4-0.4,0.6C282.6,417.6,283.2,417.7,283.1,417.1z
			 M282.2,424.6 M283.1,425.4 M285.1,421.8c-0.1,0.2-1.2,1-0.2,1.2C284.8,422.7,286.1,422.1,285.1,421.8z M285.7,414.6
			c0,0.4-0.4,0.2-0.6,0.4C285.1,414.6,285.5,414.7,285.7,414.6z M287.9,414.9 M288.2,418.9c0.1-0.1,0.5,0,0.6-0.4
			C288.6,418.6,288.2,418.5,288.2,418.9z M289.1,424.8c-0.2,0-0.4,0-0.6,0c0,0.4-0.2,0.4-0.2,0.6
			C288.6,425.4,289.2,425.5,289.1,424.8z M290,416.7 M290,426 M290.2,426.9 M291.4,417.9C290.2,417.7,291.4,418.9,291.4,417.9
			c1,0.1,1.7,0,1.5-0.8c-0.8-0.4-0.8,0.4-1.5,0.2c0-0.1,0-0.2,0-0.2c-0.2,0-0.2-0.1-0.2-0.4c-0.2,0-0.5,0-0.6,0
			c-0.1,0.6,0.4,0.6,0.8,0.6C291.4,417.6,291.4,417.7,291.4,417.9z M293,425.7 M293.2,416.4 M294.2,426.9 M295.4,417.1
			c0-0.2,0-0.5,0-0.7c0.5-0.1,0-0.4,0,0c-0.1,0-0.2,0-0.2,0c-0.1,0.8-1.3,1.9-0.6,2.5c0.4-1.1,1.7-1.2,1.8-2.5
			c0.6,0.1,1-0.2,0.8-0.8c-0.6-0.1-1,0.2-0.8,0.8C295.8,416.5,295.8,417,295.4,417.1z M294.8,424 M295.4,418.3
			c-0.5,0.7,1.1,0.8,1,0.2C295.9,418.5,295.8,418.1,295.4,418.3z M295.7,421.2 M296.3,420.9 M297.7,417.7 M298.3,423.4
			c0-0.5,0.1-1.1-0.6-1c0,0.2,0,0.4,0,0.6C298.1,423,298.1,423.3,298.3,423.4z M297.7,425.7 M298.7,416.1 M300.5,470.4
			c-1.3,0.5-0.5,1.2-1.8,1.5c0-1.1,0-2,0-3C299.8,469,299.6,470.2,300.5,470.4z M298.7,473.2c0.2-0.5,0.5-1,1.2-1
			C300,473,299.3,473,298.7,473.2z M300.8,461.2c0-0.4,0-0.6,0-1c-1,0.2-1.3-0.7-1.5,0.4c0.6,0.5,0.4,0,1.2,0
			C300.5,460.9,300.6,461,300.8,461.2C300.9,461.6,301.2,461.2,300.8,461.2z M299.3,468.6 M300.5,462.1c-0.5-0.1-0.7,0.1-0.8,0.6
			C300.1,462.7,300.3,462.5,300.5,462.1z M299.6,465.7 M300.5,480c0,0.4-0.4,0.2-0.6,0.4C299.9,480,300.2,480.2,300.5,480z
			 M300.2,423.6 M300.2,451.9 M300.2,453.3 M300.5,469.6 M300.8,462.9 M300.8,476.1 M302.6,474.3c0.2-1.1-1.7-0.6-1.5,0
			C302,474.6,301.7,474.6,302.6,474.3C302.6,475.3,303.8,474.1,302.6,474.3z M302,419.1c0-0.1,0-0.4,0-0.6c-0.4,0-0.6,0-1,0
			c0,0.2,0,0.5,0,0.6C301.4,419.1,301.7,419.1,302,419.1z M301.1,422.4c0.2-0.1,0.6,0,0.6-0.4C301.4,422.2,301.1,422.2,301.1,422.4z
			 M301.1,464.1c0.2,0,0.6,0,0.6-0.2C301.4,463.9,301.1,463.9,301.1,464.1z M301.1,477.3 M301.4,456c0.2-0.1,0.6,0,0.6-0.4
			C301.8,455.8,301.4,455.8,301.4,456z M301.7,457.8 M302,424.8 M302,435.4 M302,475.5c0.2,0,0.6,0,0.6-0.2
			C302.4,475.3,302,475.3,302,475.5z M302.2,458.2 M302.6,426c0,0.4,0.5,0.5,0.6,0C302.8,426.1,302.7,425.6,302.6,426z M302.6,466.9
			 M302.6,472.8 M303.8,436.6c-0.5,0-1.1-0.1-1,0.6C303.4,437.2,303.7,436.9,303.8,436.6z M302.8,415.8 M302.8,453.9 M304,420
			c-0.1,0-0.4,0-0.6,0c0,0.2-0.2,0.4-0.2,0.6C303.7,420.6,304.3,420.6,304,420z M304,434.4c-0.1,0-0.4,0-0.6,0
			c0,0.4-0.2,0.4-0.2,0.6C303.7,435,304.3,435,304,434.4z M303.2,467.1 M305.9,475.5c-1-0.2-1,0.6-1.9,0.4c0-1-1.2,0.2,0,0
			c0,0.1,0,0.4,0,0.6c-0.4,0.1,0.1,0.4,0,0C305,476.5,306.6,476.4,305.9,475.5c0.6,0.2,0.7-0.6,0.2-0.6c-0.1-0.5-0.4,0,0,0
			C306.2,475.2,305.9,475.3,305.9,475.5z M303.8,467.4 M303.8,479.8 M305,465.1c-0.2,0-0.4,0-0.4,0.2c0.8,0.1,1.3-1.5,0.7-1.8
			c-0.1,0.7-1.4,0.2-1.3,1.2C304.4,464.8,305,464.7,305,465.1z M304,448 M304,466.5 M305.9,473.2c-0.1-0.7-1.1-1.4-1.5-1
			C304.3,473.2,305,473.2,305.9,473.2z M304.4,462.7c0.2-0.1,0.6,0,0.6-0.4C304.7,462.5,304.4,462.3,304.4,462.7z M304.6,461.4
			 M305,459c0,0,1.1,0.2,1,0.4C306.6,458.7,304.9,458.5,305,459z M305,473.7 M305.3,451.9 M305.6,462.9c0.4,0,0.5,0.5,0.6,0
			C306.2,462.7,305.7,462.6,305.6,462.9z M306.5,465.1c0.1,0,0.4,0,0.6,0c0-0.2,0-0.5,0-0.6C306.5,464.4,306.5,464.7,306.5,465.1
			C305.2,464.7,306.4,465.9,306.5,465.1z M305.9,420.6 M305.9,462.1 M307.1,458.4C307.2,458.9,307.5,458.4,307.1,458.4
			c0-0.1,0-0.4,0-0.6c1.4,0.4-0.4-1.4,0,0C306,457.6,306.6,458.4,307.1,458.4z M306.5,460.2 M306.8,461.4c0,0,1.1,0.2,1,0.4
			C308.4,461,306.6,460.9,306.8,461.4z M306.8,466.9 M307.7,473.7c-0.4,0-0.4,0.5,0,0.6c0.5-1.1,1.9-1.1,2-2.4
			c-1.2,0.1-1.3,1.4-2.6,0.6C306.8,473.5,307.6,473.3,307.7,473.7z M307.9,424.8c0.5-0.7-1-0.8-0.8-0.2c0.1,0,0.4,0,0.2,0.2
			C307.6,424.8,307.8,424.8,307.9,424.8z M307.1,478.9 M307.1,479.8c0.2-0.1,0.6,0,0.6-0.4C307.5,479.6,307.1,479.4,307.1,479.8z
			 M307.9,469.6c-0.2,0.8-0.8,1.3-0.6,2.6c1-0.1,0.7-1.5,1.5-0.2c-0.1-1-0.4-1.7-0.6-2.4c0.7-0.2,0.1-1.5-0.6-1.2
			c-0.2,0.7,0.6,0.6,0.6,1.2C308.2,469.6,308.1,469.6,307.9,469.6z M307.4,456.4c-0.2,1,1.2,1.1,1.2,0.2
			C308.2,456.5,307.9,456.2,307.4,456.4z M307.4,464.1 M307.9,474.9C308.4,474.8,307.9,474.6,307.9,474.9
			C306.8,475.1,308.1,476.2,307.9,474.9z M308.9,461.7c-0.7-0.1-1.2,0.1-1.2,0.6C308.2,462.3,308.7,462.1,308.9,461.7z M307.9,454.3
			c0.2-0.1,0.6,0,0.6-0.4C308.3,454,307.9,453.9,307.9,454.3z M308.3,465.3c0.2,1-0.4,1.2-0.4,1.8
			C309,467.3,309.3,465.4,308.3,465.3z M312.2,426.6c-1.1-0.5,0.5-1,0.2-1.8c-1.5,1-1.2-1.4-2.1-2c-1.1-0.2-1.4,0.2-2,0.6
			C308.8,425,310.3,427.3,312.2,426.6z M308.3,464.1c0.2,0,0.6,0,0.6-0.2C308.7,463.9,308.3,463.9,308.3,464.1z M308.5,475.5
			 M310.1,464.1c-0.4-1.7,1.3-2.5,0-3c0.2,1.4-1.1,1.3-1,2.7C309.6,463.9,309.9,464,310.1,464.1z M309.1,421.8
			c0.2-0.1,0.6,0,0.6-0.4C309.5,421.6,309.1,421.6,309.1,421.8z M309.5,478.9c-0.2,0.2-0.5,0.8,0,1c0.1-0.2,0.4-0.6,0.2-1
			c0.4,0,0.6,0,1,0c0-0.4,0-0.6,0-1c-0.7,0-1,0.2-1,1C309.7,478.9,309.6,478.9,309.5,478.9z M311,418.9c0-0.1,0-0.2,0-0.4
			c-0.5-0.4-1.5-0.5-1.5,0.4C310,418.9,310.4,418.9,311,418.9C311.5,419.9,311.9,417.8,311,418.9z M310.1,428.5c0-0.2,0-0.5,0-0.7
			c-0.2,0-0.4,0-0.6,0c0,0.2,0,0.5,0,0.7C309.7,428.5,309.9,428.5,310.1,428.5z M309.7,471.6 M310.3,414.6 M310.3,420
			c0.2-0.1,0.6,0,0.7-0.4C310.8,419.8,310.4,419.7,310.3,420z M310.3,458.8c0,0.7,0.1,1.3,1,1.2
			C311.4,459.1,311.2,458.7,310.3,458.8z M310.3,480 M311.3,456c0-0.5,0-1.1-0.6-1c0,0.2,0,0.5,0,0.6C311,455.7,311,456,311.3,456z
			 M310.7,457.2c0,0.4,0.5,0.4,0.6,0C310.9,457.2,310.8,456.8,310.7,457.2z M311,451.9 M311.3,477.1 M312.5,420.9
			C312,421.1,312.5,421.2,312.5,420.9c0.8,0.1,1.7,0.1,1.5-0.8c-0.8-0.2-0.8,0.4-1.5,0.2c0-0.8-1.2,0.4,0,0
			C312.5,420.5,312.5,420.8,312.5,420.9z M314.2,417.7c-0.1-0.8-1-1.4-1.4-1C312.7,417.7,313.4,417.7,314.2,417.7z M313.4,418.3
			 M316,417.9c0,0.4-0.5,0.7,0,1c0.1-1.1,2.6-1.3,1.5-2.5c-0.5,0.8-1.1,1.2-2.1,0.7C315.4,417.7,315.9,417.7,316,417.9z
			 M315.8,426.9 M316.4,419.5C316.9,419.2,316.4,419.1,316.4,419.5C315.2,419.5,316.4,420.8,316.4,419.5z M318.2,416.1 M319.4,417.3
			c0.4,0.4,1.2,0.1,1,1c1.2-0.4,1.8-1.2,2.1-2.5c-0.5-0.2-1.2-0.2-1.5-0.6c0.5,1.2-0.2,1.4-1,0.6
			C320.2,416.7,319.1,416.4,319.4,417.3z M323.3,417.3 M323.9,416.4c0.1,0.5,0.4,0.2,0.6,0C324.5,416.1,324,416,323.9,416.4z"/>
		<path class="st0" d="M351.6,414.5c-0.5,0.8,1,0.8,0.6,0c1,0,1.9,0,3,0c0,0.4,0.2,0.1,0.2,0c2,0,4,0,6.1,0c-0.4,0.8,1,0.8,0.6,0
			c6.4,0,12.8,0,19.1,0c0,0.1,0,0.4,0,0.6c-0.7,0,0,1,0,1.2c0.8-0.1,0.1-1.1,0-1.2c0.4-0.1,0.6-0.2,0.6-0.6c0.8,0,1.7,0,2.5,0
			c0.2,0.6,1.1,0.6,1.4,0c1,0,1.8,0,2.7,0c0,1.9-1.5,0.6-1.8,2c0.6,1,1.4-1.2,2-0.2c-1,1-2.9,1.1-4.2,1.8c1,2.4,2.6-0.8,3.9-1
			c0,1,0.2,1.8,1.2,1.9c0.4-0.7-1.8-2,0-2.5c-0.4-0.4-0.8-0.5-0.6-1.4c1.4-0.6,1.9,1.5,1.8-0.6c0.1,0,0.2,0,0.4,0
			c0.2,0.5,1.3,0.2,1.4,0.8c0.4,0,0.2-0.5,0.4-0.8c1.1,0,2.1,0,3.3,0c0,0.5,0,1,0,1.4c1.1,0.5,0-1.3,1.2-0.8c0,0.5,0,1,0,1.4
			c-1,0.2-1.2-0.6-1.9,0c0.4,0.8,1.2,0.5,0.7,1.5c0.8-0.4,1.2-1.2,2-1.5c-0.1-0.6-0.6-1-0.8-1.4c0-0.2,0-0.5,0-0.6
			c0.2,0,0.6,0,0.8,0c0,0.4,0.1,0.5,0.4,0.6c0.1,0.4,0.4,0,0,0c0-0.4,0.6-0.2,0.6-0.6c9,0,18.2,0,27.2,0c-0.1,2.1,0.5,5-0.6,6.3
			c1.2,0.8,0.6,5.6,0.4,6.9c-5.5,0-11.6,0-17.7,0c-6.2,0-14.5,0.4-18.3-0.6c-0.7,0.7-1.5,0.4-3.3,0.6c-0.5-0.1,0.5-1.1-0.8-1
			c-1.3,1.8-3.9,0.4-6.3,1c-1.5-0.8-0.8-2.9-1.8-2.7c-1.4-0.4-0.5,1.1,0,2.1c-4.9,1.2-9.9,0.2-16.5,0.6c0,1.2,0,2.4,0,3.6
			c-0.4,0.7-1.5,0.5-1.8,1.2c-0.4,1.5,1.8,0.5,1.8,1c0.1,2.4-0.4,5.5,0.2,7.5c2.7,0.5,8.7-1,9,0.8c-1,0.2,0.2,0.7,0,1.2
			c1-0.2,0.2-0.6,0-1.2c0.6-0.8,1.9-1.1,3.6-0.8c0,0.4-0.5,0.2-0.6,0.6c1.2,0.5,3.3-1.5,5.1-0.4c-0.8-0.2-1.1,1-1.4,1.2
			c-0.4,0.4-1.5-0.1-1,1c0.2,0.8,1.3-1.4,1.8-0.4c-1.2,1.7-4,0.4-3.9,2.7c1.8,0.1,2.1-1.2,3.3-1.8c0.8,0.5,0.6,2,2.1,1.8
			c-0.1,0.4,0,0.6,0.2,0.6c1.2,0.2,0.7-1.3,1.5-1.4c-0.4-0.6-1.7-0.2-1.2-1.5c-0.4,0.5-1.1,0.8-1,1.8c-0.6-0.2-0.7-1.1-1.2-1.5
			c1.8,0.1,0-1.1,0.4-1.8c0.5,0,0.8,0.1,1.2,0.4c0,0.2,0,0.4,0,0.6c0.2-0.1,0.5-0.2,0.6-0.6c1.1,0-0.7-1.1,0.2-1
			c0.8,0.1,1.1,0.8,1.8,1c0.8-0.4-0.2-1.2,0.4-1.2c1,0,2,0,3,0c0,0.6,0,1.2,0,1.8c1.2,0.5,0.1-1.3,1.2-1c0,0.6,0,1.1,0,1.5
			c-1,0.1-1.2-0.7-1.8,0c0.4,0.8,1.2,0.4,0.6,1.5c0.8-0.4,1.2-1.3,2.1-1.5c-0.1-0.7-0.7-1-1-1.5c-0.1-2.3,1.4,0.6,1.8-0.6
			c12-0.5,25.9-0.5,37.8,0c-0.1,4.3,0.5,9.3-0.2,13c-5,0-10.5,0-15.9,0c-5.8,0-13.4,0.5-17.1-0.6c0.4,0.8-0.6,0.5-1.2,0.6
			c-1.1,0.4-1.4-1.4-2-0.4c0.2,0,0.2,0.4-0.4,0.4c-2-0.6-4.3,0.7-5.7-0.6c0.4-1.2-1.2-1.3-1.5-1c-0.2,1.1,1.3,0.4,1.5,1
			c-0.2,1.1-1.9,0.5-2.4,0.2c0.5-1.4,0.8-2.1,0.8-3.2c-1.2,0-1.4-1.1-2-2.5c0.5-0.1,0.7-0.4,1.2-0.6c0.5,0.1,0.2,1,1.2,0.6
			c-0.1,1.4-0.2,2.1,1,2.7c0.7-0.5,1.1-1.4,0.2-2.1c0.2,0.1,0.2-0.1,0.4-0.2c0.2,0,0.6,0,0.8,0c0-0.4-0.8-0.4-0.8,0
			c-0.4-0.1-0.4,0.1-0.4,0.2c-0.5-0.2-0.4-1-0.6-1.4c-0.2-0.7,2.3-0.7,0.6-1c-0.2-1.8-1.1,1-2.4-0.6c-0.5,1.2,1.3,0.1,0.8,1.2
			c-1.2,0.7-1.1-0.7-2,0.4c-0.2-0.5-0.4,0,0,0c0.1,1.2-0.5-0.1-1.2,0.2c-0.5,1.2,1.3,0.1,0.8,1.2c-1.9-0.2-1.8,1.7-3,2.1
			c1,0.4,2.6,0.5,3.3,1.8c-0.5,0.1-0.4,0.7-0.4,1.2c-4.8,0.2-9.7,1.2-13.4-1.2c-0.1,2.1-4,1.2-5.1,1.5c-0.5,5.7,1.1,11.5-1.2,15.2
			c-0.4,0.1-0.2,0.5-0.4,0.7c-0.7-0.1-0.1-1.1,0-1.3c-1-0.2-0.5,1-0.6,1.5c0.4,0,0.6-0.1,0.6-0.2c0.4-0.1,0.2-0.5,0.4-0.7
			c0.1,0,0.4,0,0.6,0c0.5,0.7,0.1-2.3,1.2-2c5.7-0.4,12.1,0.2,17.7,0.2c1,0,2-0.4,3-0.2c1.7,0.2,1.2,0.1,2.7,0c3-0.4,6.3,0,9.5,0
			c10.9,0,20.6,0,31.5,0c-0.1,4.3,0.5,9.4-0.2,13.2c-4.9-0.2-10.6,0.2-15-0.4c0.1-1.2,1.1-1.7,0-2.4c0.1,1.4-0.7,2-1.2,2.7
			c-3.4,0-7.4,0-10-0.4c0-0.4,0-0.7,0-1.2c0.4-0.1,0.6-0.2,0.6-0.6c-0.5-0.1-0.5,0.2-0.6,0.6c-0.2,0-0.6,0-0.8,0
			c-0.1,0.8,0.6,0.7,0.8,1.2c0.1,0.6-1.1,0.1-1.4,0.4c-0.2-0.5-0.5-1.1-1.5-0.6c0.1-1.3-1.2-0.1,0,0c0,0.5-0.1,0.5-0.6,0.6
			c-3.4,0.4-8.8-0.4-13.8-0.4c-3.8,0-8.1,1-9.6-0.2c-1.9,1.2-5.9,0.4-8.7,0.2c-3.6,0-7,0.6-10.8,0.4c0-0.6,0.1-1,0.4-1.2
			c-1.9,0.4-1.3-1.7-2.1-2.4c-1,0-1.3,0.6-2.1,0.8c-0.2,1.4,2,1.9,1.3,2.7c-1.1-0.1-3,0.4-2.7-1c0-1.3,1.3,0.6,1.2-0.8
			c-0.7,0-1.2-0.1-1.2-0.6c0.2-2.7-0.4-4.3,0.8-5.7c0.7,0.6,0.8,1.7,1.9,1.8c-1.4-1.5-0.2-2.4-1-3.9c2.1,0,2.3-1.3,3.6,0.4
			c1.3-0.8-1-1.9,1-2.5c-0.4,0-0.4-0.2-0.6-0.2c-0.1-1,1.2-0.6,1.2-1.5c-1-0.2-1.1,0.4-1.8,0.4c0,0.5,0.1,1,0.6,1.2
			c-1.2,0.1-4.2,0-4.3-1.2c0.8-0.8,0.2,0.5,1.3,0.2c-0.5-1.5,0.8-1.4,0.8-2.6c1-0.1-0.2-1.3,0,0c-1-1.2-3.3-0.8-2.7,0.2
			c0-0.2,0.6-0.4,0.6,0c-1.4,1.3-1.1-1.3-1.4-2.1c1,0.1,1.4,1.1,2,0c-0.2-1.2-1.4,0.4-1.8-0.8c-0.1-0.6,0.5-0.6,0.6-1
			c-1.7,0.5-0.2-3.2-0.2-3.6c0-1.3-1.3-2.3,0-2.7c1.1,0.7,0.1,2.5,1.2,3.1c0-0.2,0.2-0.4,0.6-0.4c0.2,0.5,0.4,0,0,0
			c1-1.5-1.1-2.3-1-3.9c-0.7-0.4-0.8,1.2-1.2,0.4c-0.5-1.3,0.1-2,0-4.3c0.1-0.8,1.5-0.5,1.2-1.8c-0.7-0.4-0.8,1.2-1.2,0.4
			c0-0.8,0-1.5,0.6-1c-0.1-2-1.2-3.3-0.2-5.1c0.2,0.1,0.5-0.6,0.2-0.8c-0.2-0.4-0.7,0.1-0.8-0.4c-0.5-1.1,0.2-2.9,0.8-3.6
			c-1.4-0.7-0.7-3.2-0.2-5.1c-1-0.4-0.1-0.6-0.6-1.5c0-0.4,0.1-0.7,0.6-0.6c-1.3-3.9-0.2-10.2-0.6-15.2
			C349.3,414.5,350.4,414.5,351.6,414.5z M350,469c-0.2,0.8-0.8,1.4-1.5,1.8c0-1.3-0.6-1.9,0-3C349.4,467.8,349.4,468.8,350,469z
			 M348.8,472c-0.8-0.2,0.1-1.2,0.8-0.8C349.8,471.7,348.8,471.4,348.8,472z M348.8,439.3 M348.8,441.7 M349.1,458.8
			c-0.1,1.3,1.1,0.8,1.5,0.4C350.2,458.9,349.8,458.7,349.1,458.8z M349.1,445 M350.2,460.9c-0.6-0.1-1.1,0-1.2,0.6
			C349.8,461.6,350.2,461.4,350.2,460.9z M349.4,439.1c0.5-0.1,0.5,0.2,0.8,0.2c0-0.5,0-1,0-1.4c1-0.1,0.6-1.4,0-1.5
			c0,0.5,0,1,0,1.5C349.9,438.1,349.3,438.2,349.4,439.1z M349.7,446.2c-0.4,1.2,1.5,0.2,1-0.2C350.4,445.7,349.8,446.1,349.7,446.2
			z M349.7,445.4 M350,450.5 M350,452.2 M350.2,460c0.1,0.4,0.4,0.2,0.7,0C350.8,459.7,350.4,459.6,350.2,460z M350.2,461.7
			c0.2,0,0.6,0,0.7-0.2C350.7,461.5,350.4,461.5,350.2,461.7z M350.2,474.7c0.2-0.1,0.6,0,0.7-0.4
			C350.7,474.5,350.4,474.3,350.2,474.7z M351,433.9c-0.5,0.4-0.4,1.3,0.6,1.2C351.6,434.4,351.4,433.9,351,433.9z M351,416.8
			c-0.5,1.1,1.4,0.2,0.8-0.4C351.6,416.2,351,416.7,351,416.8z M351,427.3c0.1,0,0.5,0,0.6-0.2C351.3,427.1,351,427.1,351,427.3z
			 M351,432.2 M353.6,442c-0.1,0.1-0.7,1.2,0,1.2c0.7-1,0.4-2.7-1.2-2.4c0.2,1.7-1.2,3.1-1.4,5.1C352.3,445.1,352,442.6,353.6,442z
			 M351.6,462.9c0-0.1,0-0.4,0-0.6c-0.2,0-0.5,0-0.6,0c0,0.2,0,0.5,0,0.6C351.1,462.9,351.3,462.9,351.6,462.9z M351,469 M351,469
			 M353.3,472.9c-1.3,0.4-1.9-1.4-2.4,0C351.8,473.2,352.9,473.7,353.3,472.9z M351,475.9 M351.2,430.6 M351.2,454.6
			c0.2-0.1,0.6,0,0.6-0.4C351.6,454.4,351.2,454.3,351.2,454.6z M351.8,456.6C352.1,455.3,350.4,457,351.8,456.6
			C351.9,457.6,353.1,456.4,351.8,456.6z M351.6,448.3c0.7,0.5,1.4,0.7,2,0c-0.5-0.1,0.8-1,0.6-1.8c-0.1-0.2-1.4-0.7-1.4,0
			c1.4,0.2-0.7,0.8-1,0C352,447.4,351.3,447.4,351.6,448.3z M351.6,450.5 M351.6,458.8 M351.8,474.1 M352.1,430.9
			c0.2,0,0.6,0,0.6-0.2C352.5,430.7,352.1,430.6,352.1,430.9z M352.4,435.4c-0.1,0.2,0.1,0.7,0.4,0.6
			C353,436,352.9,434.3,352.4,435.4z M352.4,433.9 M352.4,449.5 M352.4,465.4 M352.7,452.8 M353.9,439.1c-0.5,0-1.1-0.1-1,0.6
			C353.6,439.6,353.8,439.4,353.9,439.1z M353,451.3 M353,454.9 M353,466 M353.6,475.3C353.2,475.5,353.6,475.6,353.6,475.3
			c1,0,1.9,0,1.8-1c-0.5,0-1,0-1.4,0c-0.4-0.8-1.7,0.4,0,0C353.9,474.8,353.6,474.9,353.6,475.3z M353.3,434.8 M353.6,460
			c-0.5,0.7,1.1,1,1,0.4C354.2,460.3,354,460,353.6,460z M353.6,445.6 M353.6,463.3c0.7,0,1.4,0,1.8-0.4c0-0.2,0-0.6,0-0.8
			c1.3-0.1-0.2-1.8,0,0C355.1,462.8,353.9,462.6,353.6,463.3z M353.9,423.7 M353.9,434.2 M354.2,458.8 M354.2,461.2 M355.1,472
			c0-0.4,0.5-0.2,0.6-0.6c-0.6-0.2-1.3-1.1-1.5,0C354.6,471.5,354.8,471.8,355.1,472z M355.1,464.2c0-0.2,0-0.5,0-0.6
			c-0.2,0-0.5,0-0.6,0c0,0.1,0,0.4,0,0.6C354.6,464.2,354.9,464.2,355.1,464.2z M354.8,457.6C354.6,457.1,354.4,457.6,354.8,457.6
			C355.1,458.5,356.4,457.2,354.8,457.6z M355.1,434.5C355.9,434.4,354.8,433.2,355.1,434.5C353.9,434.5,355.1,435.8,355.1,434.5z
			 M354.8,450.7c0.4,0,0.5,0.5,0.6,0C355.4,450.3,354.9,450.3,354.8,450.7z M354.8,472.6 M355.1,435.7c0.2-0.1,0.6,0,0.6-0.4
			C355.5,435.5,355.1,435.4,355.1,435.7z M355.1,448.3c0.2-0.1,0.6,0,0.6-0.4C355.5,448.1,355.1,448,355.1,448.3z M355.1,456.6
			 M355.1,466 M355.4,459.7 M355.4,460.9c0.2-0.1,0.6,0,0.6-0.4C355.7,460.7,355.4,460.6,355.4,460.9z M355.7,441.4
			C356.2,441.2,355.7,441.1,355.7,441.4C355.2,441.6,355.7,441.8,355.7,441.4z M356.3,447.4c0-0.1,0-0.4,0-0.6c-0.2,0-0.4,0-0.6,0
			c0,0.2,0,0.5,0,0.6C355.9,447.4,356.1,447.4,356.3,447.4z M355.7,464.2c0.2-0.1,0.6,0,0.6-0.4C356.1,464,355.7,463.9,355.7,464.2z
			 M355.9,456 M357.1,434.2c0-0.1,0-0.4,0-0.6c-0.2,0-0.6,0-0.8,0c0,0.2,0,0.5,0,0.6C356.5,434.2,356.9,434.2,357.1,434.2z
			 M356.3,457c0.5,0.4,1.2,0.4,0.6-0.4c0.2,0,0.4,0,0.6,0c0-0.1,0-0.4,0-0.6c-0.5,0-0.6,0.2-0.6,0.6
			C356.5,456.6,356.3,456.8,356.3,457z M356.3,459.1 M356.3,463.3 M356.9,466.6C356.4,466.7,356.9,467,356.9,466.6
			c0.1,0,0.2,0,0.2,0c0.5-0.5,0.5-1.2-0.2-0.6c0.2-1.3-1-0.1,0,0C356.9,466.1,356.9,466.4,356.9,466.6z M357.9,461.2
			c0-0.4,0.8-0.1,0.8-0.6c-0.2-0.2-0.7-0.2-1.2-0.2c0-0.2,0-0.5,0-0.6c-0.4,0-0.6,0-1,0c0,0.1,0,0.4,0,0.6c0.4,0,0.6,0,1,0
			C357.5,460.7,357.5,461.2,357.9,461.2z M356.5,463.9 M358.4,471.4c-0.8,0.5-1.8-0.6-1.9,1c0.6,0,0.8-0.6,1,0
			c-0.2,0.2-0.5,0.8,0,0.8c0,0.6-0.4,0.7-0.4,1.2c0.8,0.1,0.8-0.6,1-1.2c-0.2,0-0.4,0-0.6,0c0-1.2,1.8-0.7,1.8-2
			c-0.5-0.2-0.5-1-0.8-1.2c-0.6-1.4,0.5-2.6-1-2.7c0.8,1.4-0.7,1.9-0.4,3.9c1.2,0.2,0.4-1.4,1.3-1.2
			C358.4,470.4,358.4,470.9,358.4,471.4z M356.9,446.2 M356.9,462.9c0.4,0,0.5,0.5,0.6,0C357.5,462.7,357,462.6,356.9,462.9z
			 M358.1,455.8c0.1-0.7-0.2-1-1-1c0,0.4,0,0.6,0,1C357.5,455.8,357.9,455.8,358.1,455.8z M358.1,464.2c0.5,0.8-0.8,1.4,0,1.8
			C358.3,465.3,359.2,464.4,358.1,464.2z M357.9,453.1c0.1,0,0.6,0,0.6-0.2C358.2,452.8,357.9,452.8,357.9,453.1z M358.1,462.7
			c0,0.4,0.5,0.4,0.6,0C358.3,462.7,358.2,462.2,358.1,462.7z M358.7,441.1 M358.7,468.4 M359.9,459.7c0.4,1.5-1,1.5-0.8,3
			C360.5,462.5,360.6,460.6,359.9,459.7z M359,436.3 M359.3,454 M359.6,434.2c0.2,0,0.6,0,0.6-0.2
			C360,433.9,359.6,433.9,359.6,434.2z M360.2,441.7 M361.1,458.5c0.1-0.8-0.1-1.3-0.8-1.2c0,0.4,0,0.7,0,1.2
			C360.5,458.5,360.8,458.5,361.1,458.5z M360.5,450.7c0.1,0.4,0.4,0.2,0.6,0C361.1,450.3,360.6,450.3,360.5,450.7z M361.1,454.6
			c0-0.2,0-0.5,0-0.6c-0.1,0-0.4,0-0.6,0c0,0.1,0,0.4,0,0.6C360.7,454.6,360.9,454.6,361.1,454.6z M362,472.6
			c0.6-0.7,1.4-1.3,1.8-2.4c-0.6-0.1-0.7-0.6-1.5-0.6c0.7,1.7-1.5,0-1.4,2.1C361.4,471.7,361.5,472.3,362,472.6z M360.8,473.7
			 M361.1,456 M361.7,468 M363.2,453.1c0,0,1,0.2,1,0.4C364.9,452.7,363.1,452.6,363.2,453.1z M363.4,424.9 M365.6,443.2
			c-0.7,0-1.9,1.1-1.2,1.5C364.6,444,365.6,444,365.6,443.2z M364.7,471.7 M365,470.8c0.2,0,0.6,0,0.6-0.2
			C365.3,470.5,365,470.5,365,470.8z M367.1,441.4c-1.1-0.1-1,1.1-1.5,1.4C366.4,442.7,367,442.3,367.1,441.4z M365.6,444.4
			 M365.6,447.4 M366.2,446.8c0.2,0,0.6,0,0.6-0.2C366.5,446.5,366.2,446.5,366.2,446.8z M367.7,448.3c-0.2,0.6,0.7,1.3,0.8,0.6
			C368.2,448.8,368.1,448.4,367.7,448.3z M367.7,443.8 M367.9,450.5 M368.9,475.3c0-0.2,0-0.4,0-0.6c-0.2,0-0.4,0-0.6,0
			c0,0.2,0,0.4,0,0.6C368.5,475.3,368.7,475.3,368.9,475.3z M368.5,442c0.2-0.1,0.6,0,0.6-0.4C368.9,441.8,368.5,441.7,368.5,442z
			 M369.5,442 M369.7,451.1 M370.1,449.7 M370.4,449.2 M370.4,469.2c0.1,0,0.5,0,0.6-0.2C370.8,469.1,370.4,469,370.4,469.2z
			 M370.7,447.7 M370.7,479.2c0.1,0.4,0.4,0.1,0.6,0C371.3,478.9,370.8,478.9,370.7,479.2z M371,444.8c-0.5,1.1,1.4,0.1,0.8-0.4
			C371.6,444.2,371,444.6,371,444.8z M371,426.7 M371,448.3c0.2-0.1,0.6,0,0.6-0.4C371.4,448.1,371,448,371,448.3z M371.3,468.6
			 M371.9,425.5 M371.9,450.7 M372.5,470.2c-0.2,0.6,0.8,1.3,1,0.6C372.9,470.7,372.8,470.3,372.5,470.2z M372.5,452.2
			c0.1,0.4,0.4,0.1,0.6,0C373.1,451.9,372.6,451.8,372.5,452.2z M372.8,441.7 M373.1,450.7 M374,446.5c0-0.2,0-0.5,0-0.6
			c-0.2,0-0.5,0-0.6,0c0,0.1,0,0.4,0,0.6C373.5,446.5,373.8,446.5,374,446.5z M373.4,447.4 M374.6,426.7c0-0.2,0-0.4,0-0.6
			c-0.4,0-0.6,0-1,0c0,0.2,0,0.4,0,0.6C374,426.7,374.2,426.7,374.6,426.7z M374.2,418c1-0.1,1.5-0.7,1.8-1.5
			c0.7-0.5,1.4-0.7,1.5-1.8c-1,0.1-1.2,1.1-1.5,1.8C375.1,416.7,374.5,417.2,374.2,418z M375.4,423.7
			C374.1,423.6,375.4,424.9,375.4,423.7c0.2,0,0.5,0,0.6,0c0.1-0.5-0.2-0.6-0.6-0.6c-0.1-0.6,0.4-1.8-0.2-1.8c0.1,1-1,0.6-0.6,1.8
			c0.2,0,0.6,0,0.8,0C375.4,423.4,375.4,423.5,375.4,423.7z M374.6,419 M374.6,420.2 M374.8,471.7 M376.4,425.5c0-0.2,0-0.4,0-0.6
			c0-0.2,0-0.4-0.4-0.2c0,0.5-0.8,0.1-0.8,0.6C375.6,425.3,375.8,425.6,376.4,425.5z M375.2,426.1 M375.2,427.1 M375.2,448
			 M375.2,471.1 M375.4,451.9C375.3,451.4,375.1,451.9,375.4,451.9C375.7,452.4,375.8,451.9,375.4,451.9z M375.4,442.3 M375.4,469.6
			 M375.8,418c0.2,0,0.2,0.4,0.2,0.6c-0.4,0.2,0.1,0.4,0,0C377.2,418.6,376.1,417.1,375.8,418C375.3,418.3,375.8,418.4,375.8,418z
			 M376.7,469.9c-0.5,0-1.1-0.1-1,0.6C376.3,470.5,376.5,470.3,376.7,469.9z M375.8,420.8c0.2-0.1,0.6,0,0.6-0.4
			C376.1,420.5,375.8,420.4,375.8,420.8z M375.8,427.1c0.2-0.1,0.6,0,0.6-0.4C376.1,426.8,375.8,426.7,375.8,427.1z M375.8,446.5
			 M375.8,448.6c0.2,0,0.6,0,0.6-0.2C376.1,448.3,375.8,448.3,375.8,448.6z M376,422.8c0.2,0,0.6,0,0.7-0.2
			C376.5,422.5,376.1,422.5,376,422.8z M376.7,442c0-0.2,0-0.5,0-0.6c-0.2,0-0.5,0-0.7,0c0,0.1,0,0.4,0,0.6
			C376.3,442,376.5,442,376.7,442z M376.4,445.6 M376.7,420.2c0.1-0.1,0.5,0,0.6-0.4C377.1,419.9,376.7,419.8,376.7,420.2z
			 M376.7,422.2 M376.7,447.4 M376.7,472.6c0,0.4,0.5,0.4,0.6,0C377,472.6,376.9,472.2,376.7,472.6z M377.3,446.5 M377.9,474.3
			c0-0.1,0-0.4,0-0.6c-0.2,0-0.5,0-0.6,0c0,0.2,0,0.5,0,0.6C377.5,474.3,377.7,474.3,377.9,474.3z M377.9,468.6c0.5,0,1-0.1,1.2-0.6
			C378.4,467.4,378,468,377.9,468.6C377.5,468.9,377.9,469,377.9,468.6z M377.9,417.1c0.2,0,0.6,0,0.6-0.2
			C378.3,416.8,377.9,416.8,377.9,417.1z M378.8,422.8c1-0.7-0.7-1.8-0.8-0.6C378.5,422.2,378.5,422.7,378.8,422.8z M378.2,469.2
			c0.4,0,0.5,0.5,0.6,0C378.8,469,378.3,468.9,378.2,469.2z M378.5,423.7 M379.1,415.3 M379.1,446.5 M379.1,453.1 M379.7,445.6
			c0-0.2-0.2-0.4-0.4-0.6C380.4,444.8,380.4,445.5,379.7,445.6z M379.7,426.5c0.2-0.1,0.6,0,0.6-0.4
			C380.1,426.2,379.7,426.1,379.7,426.5z M380.3,442c-0.2,0-0.5,0-0.6,0C379.7,441.7,380.2,441.7,380.3,442z M379.9,469.9
			 M380.3,423.1c0.2-0.1,0.6,0,0.6-0.4C380.7,422.9,380.3,422.8,380.3,423.1z M380.3,424.3 M380.3,474.1 M380.5,467.8 M380.5,468.4
			 M380.9,422.5 M382.7,418c-0.4-0.4-1.4-0.5-1.5,0.4C381.6,418.7,382.7,418.7,382.7,418z M381.1,421.6 M381.1,424.3 M381.1,425.3
			 M381.7,472.6c0.5,0.5,1.2,0.5,1.2-0.2c1.7,0.6,1.9,2.5,3.9,2.6c-0.4-1,0.8-1.9,0-2.4c-1.1,1-1.1-1.7-1.8-2
			c-1.1,0.1-2.1,0.5-2.1,1.8C382.6,471.8,382.1,472.1,381.7,472.6z M381.7,475.3 M382.1,424.3c0.2-0.1,0.6,0,0.6-0.4
			C382.4,424.1,382.1,424.1,382.1,424.3z M382.1,468.4 M382.3,479.2c0.8,0.6,1.3,0.6,2.1,0c0.1-0.6-0.5-0.8,0-1
			c1.1-1,1.8,1.2,2.4-0.2c-1.1-0.2-1.1-1.4-2.4-1.2C384.2,478.1,382.4,477.8,382.3,479.2z M383.9,444.4c0.5-1.2-0.4-2.3-1.2-1.8
			C383,443.2,383,444.3,383.9,444.4z M382.9,420.4 M382.9,425.5 M383.3,422.2c0.4,0,0.5,0.5,0.6,0
			C383.9,421.9,383.4,421.8,383.3,422.2z M384.5,419.2c-0.6-0.2-1.3,0.8-0.6,1C383.9,419.7,384.7,419.9,384.5,419.2z M383.9,420.8
			 M383.9,445.4c0.2-0.1,0.6,0,0.6-0.4C384.2,445.1,383.9,445,383.9,445.4z M383.9,451.1 M383.9,468.4 M384.2,445.9 M384.2,451.9
			 M384.8,469.9c0-0.2,0-0.5,0-0.7c-0.2,0-0.5,0-0.6,0c0,0.2,0,0.5,0,0.7C384.3,469.9,384.6,469.9,384.8,469.9z M384.8,476.5
			c0-0.2,0-0.4,0-0.6c-0.2,0-0.5,0-0.6,0c0,0.2,0,0.4,0,0.6C384.3,476.5,384.6,476.5,384.8,476.5z M384.5,443.2 M384.5,453.1
			 M384.8,450.1c0,0.4,0.2,0.2,0.6,0C385.4,449.7,384.8,449.7,384.8,450.1z M385.1,452.5 M385.1,467.8c0.2-0.1,0.6,0,0.6-0.4
			C385.4,467.6,385.1,467.4,385.1,467.8z M385.4,421.4c0.2-0.1,0.6,0,0.6-0.4C385.8,421.1,385.4,421,385.4,421.4z M385.4,450.7
			c0.2-0.1,0.6,0,0.6-0.2C385.8,450.5,385.4,450.5,385.4,450.7z M385.7,446.2c0.2,0,0.5,0,0.6,0c0.2,0.1,0.4-0.1,0.4-0.2
			c-0.4,0-0.2-0.4-0.4-0.6c0.5-0.2,0-0.4,0,0C385.9,445.5,385.7,445.7,385.7,446.2z M385.7,469.6 M386,415.7 M386,426.5
			 M386.2,420.2 M386.2,424.7c0.1,0.4,0.4,0.1,0.6,0C386.8,424.3,386.4,424.2,386.2,424.7z M386.8,469
			C386.5,469.2,387,469.4,386.8,469c0.8-0.4,2-0.2,2.4-1c-0.8-0.4-0.8,0.1-2,0c-0.4-0.8-1.7,0.4,0,0
			C387.3,468.5,386.8,468.6,386.8,469z M387.2,415.3c0-0.1,0-0.4,0-0.6c-0.2,0-0.5,0-0.6,0c0,0.2,0,0.5,0,0.6
			C386.7,415.3,387,415.3,387.2,415.3z M387.2,426.7c0.2,0,0.6,0,0.6-0.2C387.6,426.5,387.2,426.5,387.2,426.7z M388.4,424.3
			c0-0.5-0.2-0.7-0.6-1c0,0.4-0.2,0.4-0.4,0.6C387.9,424.1,387.9,424.4,388.4,424.3z M387.4,449.5 M387.8,419.8 M389,451.6
			c0.5-0.8-1.1-1-1-0.4c0.2,0,0.4,0,0.4,0.4C388.6,451.6,388.7,451.6,389,451.6z M388,440.8c0.2,0,0.6,0,0.6,0.2
			C388.4,441.1,388,441.1,388,440.8z M388,442 M390.5,425.5c0.5,0.2,0.8,0.7,1.4,1c0.2-1,0.6-1.7,1-2.5c-1.7,1.1-1.4-1.3-2.1-2
			c-1.3-0.2-1.9,0.2-2.4,0.8C388.6,424.2,390,424.4,390.5,425.5C389.6,425.6,390.8,426.8,390.5,425.5z M388.4,444.2 M389.6,426.5
			c0-0.5,0-1.1-0.6-1c0,0.2,0,0.4,0,0.6C389.2,426.1,389.3,426.3,389.6,426.5z M389,467.8 M389.6,442c0.8,0.2-0.8,0.6-0.4,1.4
			c1-0.1,0.6,0.8,1.5,0.7c0.5-1,1.4-1.2,1.5-2.5c-0.5-0.2-1.2-0.2-1.5-0.6c-0.1,0.6,0.5,0.6,0.6,1
			C390.4,442.9,390.2,441.3,389.6,442z M389.2,427.1 M389.2,449.7c0.2,0,0.6,0,0.7-0.2C389.7,449.6,389.3,449.5,389.2,449.7z
			 M389.9,419.8C389.8,419,388.6,420.2,389.9,419.8C390,420.3,390.3,419.8,389.9,419.8z M390.2,421.4c0-0.2,0-0.5,0-0.6
			c-0.2,0-0.4,0-0.6,0c0,0.1,0,0.4,0,0.6C389.8,421.4,389.9,421.4,390.2,421.4z M389.6,445.6 M390.2,449.5c0.2,0.6-1,1,0,1.2
			c0.2,0.5,0.4,0,0,0c0-0.2,0.4-0.2,0.6-0.2c0.1-0.6-0.2-0.6-0.2-1c0.6,0.1,1.1-0.1,1.2-0.6c-0.4-0.2-0.7-0.4-1.2-0.4
			c0,0.2,0,0.5,0,0.6s0,0.2,0,0.4C390.4,449.5,390.3,449.5,390.2,449.5z M391.1,418c0.2-1-0.7-0.5-1.2-0.6
			C389.7,418.4,390.6,418.5,391.1,418C391.5,419,392.7,417.7,391.1,418z M389.9,415.9 M389.9,416.8 M389.9,452.2 M389.9,452.8
			 M390.5,444.8 M391.1,468c0-0.1,0-0.4,0-0.6c-0.2,0-0.5,0-0.6,0c0,0.2,0,0.5,0,0.6C390.6,468,390.9,468,391.1,468z M390.8,419.2
			c0.1,0.4,0.4,0.2,0.6,0C391.4,419,390.9,418.9,390.8,419.2z M390.8,448.3 M391.1,421c0.2,0,0.6,0,0.6-0.2
			C391.5,420.8,391.1,420.8,391.1,421z M391.7,446.8c0-0.1,0-0.4,0-0.6c-0.2,0-0.5,0-0.6,0c0,0.2,0,0.5,0,0.6
			C391.2,446.8,391.5,446.8,391.7,446.8z M391.4,417.1 M391.9,419 M392.9,420.2c-0.6,0-0.8,0.2-1,0.6
			C392.5,420.8,392.8,420.5,392.9,420.2c0.8,0,1.7,0,1.4-1c-0.7-0.1-0.6,0.6-1.4,0.4c-0.4-1-1.7,0.2,0,0
			C392.9,419.7,392.9,419.9,392.9,420.2z M392.3,418 M392.3,479.4 M393.1,443.5 M394.3,452.2c0.1-0.7,0-1.2-0.6-1.2
			c0,0.4-0.5,0.5-0.6,0.8C393.7,451.9,393.8,452.2,394.3,452.2z M393.1,476.2 M393.5,415.7c-1.1,0.7,0.7,1.8,1.2,0.8
			C394.1,416.5,393.8,415.9,393.5,415.7z M393.7,417.4 M394.3,442.6c0-0.2,0-0.4,0-0.6c-0.1,0-0.4,0-0.6,0c0,0.2,0,0.4,0,0.6
			C394,442.6,394.2,442.6,394.3,442.6z M393.7,444.4c0.2-0.1,0.6,0,0.6-0.2C394.1,444.2,393.7,444.2,393.7,444.4z M393.7,449.2
			 M393.7,472.9c0.2-0.1,0.6,0,0.6-0.4C394.1,472.7,393.7,472.6,393.7,472.9z M394.1,447.7 M394.1,448.9 M394.3,418.6
			c0.2-0.1,0.6,0,0.6-0.2C394.7,418.4,394.3,418.4,394.3,418.6z M394.7,419.2 M394.7,419.8 M394.7,421.4 M394.7,471.7 M394.9,416.5
			 M394.9,448 M394.9,451.1 M395.5,453.1 M396.2,474.3c0,0.6-0.4,1.5,0.6,1.2C396.7,475.1,396.6,474.6,396.2,474.3z M396.5,418.6
			c0.1,0.2-0.1,0.2-0.2,0.4c0,0.1,0,0.4,0,0.6c0.6,0.1,0.5-0.5,0.6-1c0.4-0.2-0.1-0.4,0,0C396.7,418.6,396.6,418.6,396.5,418.6z
			 M396.2,451.9c0.1,0,0.5,0,0.6-0.2C396.6,451.6,396.2,451.6,396.2,451.9z M396.8,451.3 M397.1,453.7 M397.1,477.4 M397.6,470.5
			c0.8-0.1,1.2-0.5,1.2-1.3c-0.1,0-0.4,0-0.6,0c-0.1-0.5,0.4-1.7-0.2-1.8c0,1-0.7,1-0.6,1.8c0.2,0,0.6,0,0.8,0
			C398.6,470.3,397.3,469.5,397.6,470.5z M397.4,452.2c0.2-0.1,0.6,0,0.6-0.4C397.8,452,397.4,451.9,397.4,452.2z M397.4,472.3
			 M397.4,474.9c0.2,0,0.5,0.5,0.6,0C398,474.7,397.4,474.6,397.4,474.9z M397.6,451.3c0.4,0,0.5,0.5,0.6,0
			C398.2,451.1,397.8,450.9,397.6,451.3z M398,452.8c0.2-0.1,0.6,0,0.6-0.4C398.4,452.6,398,452.5,398,452.8z M398,472.3 M398,473.2
			 M398,473.7 M398.6,479.4c0.1-1.4,2.1-2.6,0.2-3.6c-0.2,0.2-0.1,1.1-0.8,1C398.2,478.3,397.8,479.1,398.6,479.4z M398.2,471.4
			c0.1,0.4,0.6,0.2,1,0.4c0-0.2,0-0.5,0-0.6c0-0.4-0.1-0.4-0.4-0.4C398.7,471,398.6,471.4,398.2,471.4
			C398.1,470.9,397.9,471.4,398.2,471.4z M398.2,475.5 M398.6,449.7 M398.8,469c0.2-0.1,0.6,0,0.6-0.4
			C399.2,468.8,398.8,468.6,398.8,469z M398.8,474.1 M399.2,450.7c-0.5,0.7,1,0.8,0.8,0.4C399.7,450.9,399.7,450.6,399.2,450.7z
			 M399.4,474.9C401,474.9,399.7,473.6,399.4,474.9C398.6,475.1,399.8,476.2,399.4,474.9z M402.2,414.7c-0.4,0-0.6,0-1,0
			c0.2,1.8-1.5,0-1.4,1.8C400.6,418.5,403.4,416.4,402.2,414.7z M399.8,419 M401,474.9c0.8,0.1,1.1-0.5,1.5-0.8
			c-0.6-1.5-1.4-1.3-1.3-3c-0.8-0.2-0.7,0.4-1.4,0.2C400.6,472.8,400.6,473.3,401,474.9z M400.4,469 M401.8,477.7c0-0.2,0-0.6,0-0.8
			c-0.8,0.1-1.2-0.7-1.4,0.2C401.1,477.7,401.5,476.8,401.8,477.7C401.6,479,402.8,477.8,401.8,477.7z M401.6,478.6
			c-0.6-0.4-1.3,0.7-0.6,0.8C401,479,401.7,479.2,401.6,478.6z M401,418 M401.2,468.4c0.2-0.1,0.6,0,0.6-0.4
			C401.7,468.2,401.2,468,401.2,468.4z M401.2,469.9 M401.8,475.3 M402.2,476.2 M402.2,479.8 M402.5,472.6c0.1,0,0.5,0,0.6-0.2
			C402.9,472.3,402.5,472.3,402.5,472.6z M402.8,474.3c0.1,0.4,0.4,0.2,0.6,0C403.4,474.1,402.9,474,402.8,474.3z M403.4,474.9
			 M403.7,416.8 M403.9,470.5c0.2-0.1,0.6,0,0.6-0.4C404.3,470.3,403.9,470.2,403.9,470.5z M404.3,415.7 M404.3,471.4 M405.5,473.7
			 M405.7,478 M405.7,479.2 M406.9,475.9c0.5-0.7-1-0.8-0.8-0.4c0.1,0.1,0.4,0.1,0.2,0.4C406.6,475.9,406.8,475.9,406.9,475.9z
			 M406.3,468.4 M406.9,478.6 M406.9,479.4 M408.1,474.9c0.4-0.5,1.1-0.8,0-1.2C408.5,474.3,407.3,474.8,408.1,474.9
			C408.3,475.4,408.5,474.9,408.1,474.9z M408.7,478.3c0.5-0.7-1-0.8-0.8-0.2c0.1,0,0.4,0,0.2,0.2
			C408.3,478.3,408.6,478.3,408.7,478.3z M408.5,472.9c-0.2,1,1.2,1.2,1.2,0.2C409.3,473,409.1,472.8,408.5,472.9z M408.7,472.6
			 M410,478.3c-0.5,0-1.1,0-1,0.6C409.5,478.9,409.8,478.6,410,478.3z M409.6,471.1c0-0.2,0-0.5,0-0.6c-0.2,0-0.4,0-0.6,0
			c0,0.1,0,0.4,0,0.6C409.3,471.1,409.4,471.1,409.6,471.1z M411.4,417.7c-0.1,0-0.4,0-0.6,0c0,0.4-0.2,0.4-0.2,0.7
			C411.1,418.3,411.5,418.4,411.4,417.7z M411.8,475.3c-0.5,0.5-0.4,1.3,0.6,1.2C412.4,475.8,412.3,475.4,411.8,475.3z M411.8,468.6
			c0.2,0,0.6,0,0.6-0.2C412.1,468.4,411.8,468.4,411.8,468.6z M411.8,473.5 M412,472 M413,472.3 M413.8,476.5
			c-0.5,0-0.7,0.2-0.8,0.6C413.5,477.1,413.7,476.8,413.8,476.5z M413.2,475.3 M414.2,476.2 M414.8,475.5 M416.3,422.5
			c-0.5,0-1.1,0-1,0.6C415.8,423.1,416.1,422.9,416.3,422.5z M415.9,475.9C417,475.4,415,474.9,415.9,475.9
			C414.8,476,416.1,477.2,415.9,475.9z M415.9,420.8c0.2-0.1,0.6,0,0.6-0.4C416.3,420.5,415.9,420.4,415.9,420.8z M415.9,477.1
			c0.2,0,0.6,0,0.6-0.2C416.3,476.8,415.9,476.8,415.9,477.1z M418.1,475.5c0-0.1,0-0.4,0-0.6c-0.4,0-0.6,0-1,0c0,0.2,0,0.5,0,0.6
			C417.5,475.5,417.7,475.5,418.1,475.5z M422.6,467.8c0.2-0.1,0.6,0,0.6-0.4C423,467.6,422.6,467.4,422.6,467.8z"/>
		<path class="st0" d="M475,416.2c0.4-0.1,0.5-0.5,0.8-0.6c-0.1-0.4-0.4-0.6-0.8-0.6c-1.2-0.8,2.1-0.8,2.4-0.2
			c-1.5-0.2,0.4,1.4-0.6,1.4c0.1,0.8,1.7,0.1,1.5,1.2c0.4-0.4,0.5-0.8,1.4-0.6c0.5,0.6,0.4,0.7-0.6,0.6c0.1,0.5,0.8,0.1,1,0.6
			c0.1,0.7-0.6,0.5-0.6,0.6c0,1.2,1.3,1.2,2,2.5c0.4,1.1-1.3,0.5-0.8,1.8c-1,0.2-0.6-0.8-1.2-1c-0.4,0.2,0.1,1.2-0.4,1.8
			c1,0.1,1.1-0.7,2.1-0.6c-1.2,1.3-3.3,1.3-4.2,2.1c1.2,1.7,2.4-1,3.8-1c0.1,1.1,0.7,1.5,1.5,1.9c-1.3-1.5-0.1-2.4-1-3.9
			c2,0.1,2.4-1.4,3.3,0.2c1.4-0.6,0.4-0.8,0.4-2c0.2,0,0.6,0,0.8,0c-0.1-0.4-0.2-0.6-0.6-0.7c0-1,1.2-0.6,1.2-1.4
			c-0.8-0.2-1.1,0.2-1.8,0.2c0.1,0.6,0.2,1.1,0.6,1.2c-1.3-0.1-3.9,0.5-4.2-1.4c1.3,1.3,1.5-1.1,2.1-2.1c0.8,0-0.4-1.2,0,0
			c-1.1-1.1-2.5-0.8-3.1,0c0.1,0.5,0.5-0.1,1,0c0,0.7-0.7,0.7-1.5,0.6c-0.2-0.8,0.4-1.1,0.4-1.8c-0.7,1.2-1.5,0.6-2.7,1
			c0-0.5,0-0.8,0-1.2c4.3-0.4,4.4,0.1,9-0.4c-0.2,0.4-0.7,0.6-1.2,0.6c1.2,1.2,3.3-2.1,4.5,0c0.2,0,0.6,0,0.6-0.2
			c1.4-0.2,2.4-0.4,4.2-0.4c-0.1,0-0.2,0.4-0.6,0.4c3.4,0,10.6-0.7,15-0.4c0,0.5-0.2,0.7-0.6,1c1.2,2.9,0.6,9.1,0.4,11.6
			c-1.1-0.5-2.1,0-3,0.4c0.6,1-0.5,1.8,0.6,2.4c-0.2-1.2,0.8-2.4,2.6-2.4c-0.1,6.8,0.1,14.3,0,21.3c0.4,1-1,0.5-0.8,1.2
			c1.4-0.4,0.7,2.5,0.8,4.3c-3.4,0-7,0-10.5,0c3.4,8.7,6.9,17.5,10.5,26c-3.8,0.6-8.9,0.1-13.2,0.4c-3.7-8.8-7.4-17.6-11-26.4
			c-3.2,0.1-6.1-0.4-8.4,0c0.1-0.6,0.6-0.8,0.6-1.5c0-0.6-1.1-0.2-1.2-0.6c0.1,1-2,0.8-1.8,2.1c-0.2,0-0.5,0-0.6,0
			c-1,0.2-0.6-0.7-0.6-1.3c-1.3,1-3.7,1.8-4.9,0.4c0,1.4-3,0.6-4.2,1c0.7-0.8-0.8-0.6-0.4-1.9c1.4,0.4,1.8,1,1.8-0.2
			c1,0.5,1.3-0.5,1.3,0.8c0.2,0,0.4-0.2,0.6-0.2c0.7-0.1,0.1-1.3-0.4-1.2c1.2-0.6,0.1-2,1.8-2.4c-0.8-0.7-2.6-0.2-1.8,1.2
			c-1.2-0.4-1.9,0.5-2.4,0c-0.4-1,0.1-1.3-0.4-2.5c1,0.2,1-0.6,1-1.4c0.4,0.4,0.6,0.2,0.6-0.4c0.1,0,0.2,0,0.2,0
			c0-0.4-0.2-0.1-0.2,0c-0.4-0.4-0.6-0.2-0.6,0.4c-1.4-0.6-2-0.6-2.7,0.2c-0.4,0.2,0,0.4,0,0c2,0-0.8,1.1-1.4,1.2
			c0.4,0.1,1.7,1.2,0.2,1.3c0.2,0.8,1.3,0.8,1.2,2c-0.2-0.1-0.5-0.4-0.6,0c0.1,0.4,0.6,0.4,0.6,0c0.8-0.7,0.2,0.5,1.2,0.4
			c-0.1,0.4-0.5,0.7-0.8,0.8c0-0.1,0-0.4,0-0.6c-0.4,0.1-0.4,0.6,0,0.6c0,0.5-0.1,0.7-0.4,1c-0.6-0.2-0.7-1-1.2-1.2
			c-0.4,0.2-0.6,0.6-1,0.8c-0.1,0.8,0.7,0.6,1,1c-4,0.6-11.3,0.1-16.8,0.4c-0.8,1.7,0.5,5.5-1.5,5.9c0.2,0.5,0.2,1.2,1.2,1
			c-0.1,6.2,0.1,12.6,0,19.5c-3,0-10,0.5-13.2-1c-0.6-3.1,1.1-1.5,0.6-3c0.8,0.1,1.4,0.4,1.8,1c0.1-1.2,0.6-1.9,0.4-3.1
			c0.8,0.1,0.7-0.8,1.4-0.8c-0.6-0.5-1.1-0.2-2,0c-0.1,0.6,0.2,0.6,0.2,1.2c-0.8,0.5-1.1-0.2-2.4,0.2c0.2-1.9,0.4-2.1,0.8-3.8
			c-0.1-0.6-0.4,0-0.8,0c0.2-1.5,0-1.7,0-3.3c0.5,0,0.7-0.2,0.8-0.6c0.6,0.4,1.5-0.4,2.1,0.6c0.7-1.1-0.8-1.8-2.1-1.2
			c0-0.4-0.5-0.4-0.8-0.4c0.2-0.7-0.6-2.6,0.6-2.4c0.2,0.8,1.5-0.8,1.2,0.8c0.7,0.1-0.1-1.3,1-0.8c0-0.7-1-0.4-1-1
			c-1-0.2-0.4,1.1-1.2,1c0-0.4-0.1-0.8-0.4-0.4c-0.5-0.7,1.3-1.4,0.4-3c0.4,0,0.8,0,1.2,0c-0.2-0.4-0.6-0.6-1.2-0.6
			c0.2-1,0.7-0.2,1.2,0c0.1-0.6-1-1.3,0.4-1.2c-0.5-1-1.5,0.4-1.9-0.4c0,0.5,0,0.8,0,1.3c-0.6-13.5,0-30.9-0.2-45.4
			c14.9,0,30.5,0.1,43.8,0c0.1,0.7-0.8,1,0.2,1C474.6,415.9,475,415.9,475,416.2z M431.4,467.3c-0.1,0-0.6,0-0.6,0.2
			c-0.7-0.1,0-1.2,0.6-0.8C431.4,466.9,431.4,467.1,431.4,467.3z M430.6,476.2 M430.8,442.4 M430.8,466.1 M431.2,432.5 M431.2,439.1
			 M431.7,452.8c0-0.1,0-0.4,0-0.6c-0.2,0-0.4,0-0.6,0c0,0.2,0,0.5,0,0.6C431.4,452.8,431.5,452.8,431.7,452.8z M431.2,455
			c0.4,0.7,0.8,1.2,1.5,1.5c-0.7-1.2,0.4-0.8,0.2-2.1c0.1,0,0.2,0,0.4,0c-0.1-0.2,0.1-0.2,0.2-0.2c0-0.2,0-0.5,0-0.7
			c-0.6-0.1-0.6,0.5-0.6,1C432.5,454.6,432.2,455.2,431.2,455z M431.4,448.1 M431.4,451.1c0.2,0,0.6,0,0.7-0.2
			C431.9,450.8,431.5,450.8,431.4,451.1z M431.7,431.6C431.5,431.1,431.4,431.6,431.7,431.6C432,432,432.1,431.6,431.7,431.6z
			 M431.7,433.1 M431.7,445.7 M431.7,453.4 M431.7,472.7 M432.1,438.8 M432.7,444.8c0-0.1,0-0.4,0-0.6c-0.2,0-0.5,0-0.6,0
			c0,0.2,0,0.5,0,0.6C432.2,444.8,432.5,444.8,432.7,444.8z M432.1,449.9c0.1,0.1,1.1,0.7,1.2,0
			C433.1,449.7,432.1,449.2,432.1,449.9z M432.1,457.7 M432.3,442.7c0,0.2,0.5,0.4,0.6,0C432.6,442.7,432.5,442.3,432.3,442.7z
			 M432.7,443.6 M432.7,469.4 M432.9,469.9c1.1,0.7,0.7,1.1,1.5,1.5c-0.2-1.1,0.5-1.2,0.2-2.1C433.9,469.4,434.1,470.4,432.9,469.9
			C432.8,469.6,432.6,470.1,432.9,469.9z M433.5,431.6c0-0.2,0-0.4,0-0.6c-0.2,0-0.4,0-0.6,0c0,0.2,0,0.4,0,0.6
			C433.2,431.6,433.3,431.6,433.5,431.6z M432.9,452.8c0,0.4,0.6,0.5,0.6,0C433.2,453,433.1,452.5,432.9,452.8z M433.3,456.5
			 M433.3,463.1c0.2,0,0.6,0,0.6-0.2C433.6,462.8,433.3,462.8,433.3,463.1z M433.3,468.5c0.2,0,0.5,0.4,0.6,0
			C433.9,468.2,433.3,468.2,433.3,468.5z M433.5,448.4 M434.7,478.4c-0.4-0.1-0.5-0.5-0.8-0.6c-0.7,0.7,0.1,1.7,0.6,2.1
			C434,478.7,435.5,479.2,434.7,478.4C435.2,478.3,434.7,478,434.7,478.4z M433.9,450.8 M433.9,451.4 M433.9,455.6 M435.7,460.7
			c0.5-0.1,0.5,0.2,0.8,0.4c0.2-0.7-0.4-0.6-0.8-0.6c0.1-0.6-0.1-1-0.6-1c0.5,1.5-1.5,3.1,0.6,4.2c-0.6,0.8-1.2-1.1-1.5,0.4
			c1.2,0.5,0.1,0.5-0.2,0.8c0.4,0.2,0.7,0.5,1.2,0.7c0.1-0.7,0.5-1.2,1.4-1c1.4-2.6,2.1-3.9,3.7-6.3c-0.1,0.4,0,0.5,0.2,0.6
			c0.7-0.8,0.2-2.4-0.8-2.4c-0.7,1.7-1,3.9-2.1,5.1c-0.4-0.1-0.2-0.6-0.6-0.6c-0.2,0.5,0,1.5-1,1.4
			C436.1,461.6,435.7,461.4,435.7,460.7z M433.9,465.8 M434.1,448.1c-0.1,0.7-0.6,1.3,0.4,1.5C434.6,448.9,435.1,448.3,434.1,448.1z
			 M434.7,457.4c-1.4,0-0.5,1.1,0,1.5c0.2-0.2,0.4-0.5,0.4-1c1,0.5,1.4-1.7,0.2-1.4c0.4,1,0.2,0.7-0.2,1.4
			C434.7,457.9,434.8,457.6,434.7,457.4z M435.1,453.2c0.2,0,0.6,0,0.8,0c0-0.2,0-0.4,0-0.6c-0.2,0-0.6,0-0.8,0c0-0.1,0-0.2,0-0.4
			c-0.2,0.1-0.4-0.1-0.4-0.2c-0.1,0-0.4,0-0.6,0c-0.1,0.6,0.5,0.6,1,0.6C435.1,452.8,435.1,453,435.1,453.2z M434.1,472.4
			 M435.7,448.1c0.2-1.1-1.2-1.2-1.2-0.4C434.8,447.8,435.1,448.2,435.7,448.1z M434.5,455.3c0.2-0.1,0.6,0,0.6-0.4
			C434.8,455.1,434.5,455,434.5,455.3z M434.7,468.2c0.2,0,0.6,0,0.6-0.2C435.1,467.9,434.7,467.9,434.7,468.2z M434.7,468.8
			c0,0.4,0.6,0.4,0.6,0C435,468.9,434.8,468.4,434.7,468.8z M435.7,466.1c0-0.2,0.2-0.4,0.2-0.6c-0.7-0.2-1.7,1-0.8,1.4
			C435.3,466.7,435.2,466.1,435.7,466.1C435.8,466.5,436,466,435.7,466.1z M435.1,471.3 M435.3,445.1 M435.3,463.1
			c0.1-0.4,0.1-0.7,0.6-0.6C435.9,462.8,435.9,463.2,435.3,463.1z M435.3,478.7 M435.9,473.9c0.7,0.1,1-0.2,1-0.8
			c-0.2,0-0.4,0-0.6,0c-0.1-1-1.3,0.2,0,0C436.4,473.5,436,473.5,435.9,473.9z M435.7,480.2 M436.3,455
			C435.3,454,435.8,456,436.3,455c0.4,0,0.8,0,1.2,0c0-0.5-0.4-0.6-0.4-1.2c0.4-0.2,0.8-0.2,1-0.6c-0.2-0.1-0.5-0.4-1-0.4
			c0,0.4,0,0.6,0,1C436.4,453.7,436.4,454.4,436.3,455z M435.9,470.5C435.8,470.2,435.5,470.7,435.9,470.5
			C436.1,471,436.3,470.5,435.9,470.5z M436.9,468.2c0.2,0,0.6,0,1,0c0-0.1,0-0.4,0-0.6c-0.4,0-0.7,0-1,0c0.5-0.7-1.1-0.8-1-0.2
			c0.2,0.1,0.5,0.2,1,0.2C436.9,467.8,436.9,468,436.9,468.2z M437.5,478.7c-0.6,0-0.6-0.4-1.2-0.4c-0.1,0.2-0.7,1.2,0,1.2
			c1-1,0,0.6,0.6,0.6c0.4-1,1.7-0.8,1.8-2c-1.1,0.5-0.1-1.1-0.8-1c-0.2-1.5-0.2-1.1,0-2.7c-0.6,0.1-0.6-0.2-1-0.2
			c0.4,1.3,0.2,1.7-0.6,2.4c0.6,0,0.1,1.1,0.2,1.5c1.1,0.2,0.5-1.1,1.3-1C437.6,477.7,438,478.7,437.5,478.7z M436.3,433.4
			 M436.3,463.1 M436.5,470.3 M437.5,471.5c0.2,0.8-0.5,0.8-0.4,1.5C437.8,473.2,438.5,471.3,437.5,471.5z M437.8,460.4
			c0-0.2,0-0.5,0-0.6c-0.2,0-0.5,0-0.7,0c0,0.1,0,0.4,0,0.6C437.3,460.4,437.6,460.4,437.8,460.4z M437.5,452.2 M437.5,459.5
			 M437.5,469.9c0.4,0,0.5,0.5,0.6,0C438,469.7,437.6,469.6,437.5,469.9z M437.8,449.6c-0.6,0.5-0.2,1.4,0.8,1.2
			C438.5,450.2,438.5,449.5,437.8,449.6z M438.6,448.7c0-0.2,0-0.4,0-0.6c-0.2,0-0.6,0-0.8,0c0,0.2,0,0.4,0,0.6
			C438,448.7,438.4,448.7,438.6,448.7z M438,443 M438,446.3 M438,475.4 M439,462.5c-0.4,0.6-0.8,0.8-0.6,1.8c1.4-0.2,0.5,2,2,1.5
			c0.2-1-0.5-1-0.6-1.5c1.2,0,1.2-1.2,1.5-2c-1.1,0.2-1-0.5-1-1.2c-1.1-0.2-0.4,1.4-1.2,1.4C439.1,462.5,439,462.5,439,462.5z
			 M438.4,462.2 M438.4,465.5 M439.2,467c0.4,1.4-2,2.6,0,3C439,468.8,440.4,467.3,439.2,467z M439,477.2
			C439.4,474.9,438,476.2,439,477.2C439.1,477.7,439.4,477.2,439,477.2z M439,442.7 M439.2,446.5 M439.2,449.3
			c0.1,0.5-0.1,1.1,0.4,1.2C439.9,450.1,439.7,449.6,439.2,449.3z M439.2,451.6c0.7,0.5,1-1,0.4-0.8c0,0.1-0.1,0.4-0.4,0.2
			C439.2,451.3,439.2,451.5,439.2,451.6z M439.8,462.8c-0.2-0.1-0.6,0-0.6-0.4C439.5,462.6,439.8,462.5,439.8,462.8z M439.6,476.6
			c0.1,0,0.4,0,0.6,0c0.5-1.2,0.8-2.5,1.8-3.3c0,0.1,0,0.2,0,0.4c0.2,0,0.2,0.2,0.6,0.2c0.1-0.2,0.4-0.5,0.2-0.8
			c-0.5-0.1-0.5,0.2-0.8,0.2c-0.1-0.5,0.2-0.6,0.6-0.6c0-0.7-0.5-1.2-1.2-1.2C441.5,473,440.1,474.8,439.6,476.6
			C439.1,476.8,439.6,477,439.6,476.6z M440.4,477.5c0.8,0.2-0.7,0.5-0.2,1.4c1.3,1.3,2.5-0.2,3-1.4c-0.4-0.1-1.2-1.3-1.5-0.4
			c0.2,0.1,0.4,0.2,0.4,0.6C440.9,478.4,441,476.5,440.4,477.5z M440.4,450.5 M440.4,454.7 M440.8,449.9c0.2,0,0.6,0,0.6-0.2
			C441.1,449.6,440.8,449.6,440.8,449.9z M441,461.6 M442.6,465.5c-0.1-0.6,0.4-0.6,0.6-1c-1,0.4-1.8-0.7-2.1,0
			c0.5,0,0.4,0.5,0.6,0.6C442,464.2,442.2,465.5,442.6,465.5z M441,466.7c0.8,0.5,1-1.1,0.4-1c0,0.2-0.1,0.4-0.4,0.4
			C441,466.3,441,466.5,441,466.7z M441.4,480.2 M442.2,450.5C440.7,450.1,441.8,451.4,442.2,450.5c0.4,0,0.2-0.2,0-0.2
			c0.4-1.3-0.8-0.1,0,0C442.2,450.3,442.2,450.3,442.2,450.5z M442,451.4c0.2-0.1,0.6,0,0.6-0.4C442.3,451.2,442,451.1,442,451.4z
			 M442,460.1 M442,463.6c0,0.4,0.5,0.5,0.6,0C442.2,463.8,442.1,463.3,442,463.6z M442.2,469.7 M442.6,461.3c-0.5,0.7,1.1,1,1,0.4
			C443,461.6,443,461.2,442.6,461.3z M442.6,457.1 M442.6,463.1c0.2,0,0.6,0,0.6-0.2C442.9,462.8,442.6,462.8,442.6,463.1z
			 M442.8,454.4 M443.7,450.2c0-0.5,0.4-0.5,0.4-1c-0.2,0-0.5,0-0.6,0c-0.1,0.4-0.5,0.5-0.4,1C443.4,450.2,443.5,450.2,443.7,450.2z
			 M443.2,467.3 M443.5,443.3 M443.5,447.1 M443.5,448.1 M485.2,427.4c-13.7,0.6-27.1,0.1-41.5,0.2c0,4.4,0,8.8,0,13.2
			c5.5,0,11,0,16.5,0c-1,0.5-1.2,1.9,0.4,2.1c1.3,0.1,0-2,1.2-2.1c1.3-0.1-0.5,1.2,0.8,1.2c0.6-1,0.7,1,1.2,1c0.2-1.8-1-1.4-1.2-2.1
			c3.8,0.5,8.2-0.5,12.6,0.4c-1.1,0.5,1.1,1,0,0c0.4-0.2,1.2-0.7,1,0.2c1.5-0.6,5.8-1,8.7-0.6c1.9,0.2,1.3,0.2,3.7,0
			c2.3-0.1,4.6,0.2,7.1,0c0-4.4,0-8.8,0-13.2C492.3,427.5,488.1,428.1,485.2,427.4c0.8,0,1.8,0,1.8-1c-0.5,0-1.1,0-1.5,0
			c-0.4-1-1.5,0.4,0,0C485.6,426.9,485.2,426.9,485.2,427.4z M444.1,444.5c-0.5,0.7,1,0.8,0.8,0.2
			C444.6,444.8,444.6,444.4,444.1,444.5z M445.3,444.2c1.1-0.1,0.6-1.3,0.8-1.4c1.5-0.6,0.8,0.4,2.4,0.2c-0.4-1.1-1.1-1.7-2.4-1.8
			c0,1.5-1.9,1.1-2,2.4C444.7,443.6,444.5,444.4,445.3,444.2z M446.5,450.2c0.2-0.1,0.6,0,0.6-0.4
			C446.8,450,446.5,449.9,446.5,450.2z M447.3,449.6 M451.6,452.2c-0.8-0.1-1.5,1.3-1,1.5C450.8,453.1,451.7,453.2,451.6,452.2z
			 M453,450.2c0.1,0,0.2,0,0.4,0c1-1.2,2.5-1.9,2.4-3.3c-1.3,0.5-1.5,2-3,2.4C452.7,449.7,453,449.7,453,450.2
			C452.7,450.3,453.1,450.6,453,450.2z M453,442.7c0.2-0.1,0.6-0.1,0.6-0.4C453.4,442.5,453,442.4,453,442.7z M453,448.4
			 M453.6,444.2c0.2,0,0.6,0,0.6-0.2C454.1,443.9,453.7,443.9,453.6,444.2z M454.9,443.9 M454.9,445.1 M460.9,451.4
			c0.1-1.2-0.2-1.8-1.2-1.8c-0.5,0.4-0.4,1.2-1.2,1.2c-0.4-1,0.5-0.7,0.6-1.2c-0.8,0-0.4-0.2-0.4-0.6c-0.5,0-1.1-0.2-1.2,0.2
			c0.7,0.1,0,1.3-0.2,1.5c0.2-1.8-1.4,0.5-2.4,0.2c0.7,1-0.8,2.4,0.8,2.4c-0.8-1.5,0.8-2,2.1-2.4c-0.4,1.2,0.8,0.7,0.8,1.5
			c-0.4,0.2-0.6,0.8-0.8,1.2c1.2-0.4,2-1.2,2-2.7C460.3,451.3,460.5,451.4,460.9,451.4z M454.9,450.5 M455.5,448.4
			c0.1,0.8-0.7,1.2,0.2,1.4C456.2,449.5,456.2,448.4,455.5,448.4z M456.7,446.5c0-0.6,0.8-0.4,0.6-1.2c-1,0.2-1.3-0.7-1.5,0.4
			C456.8,445.2,456,446.7,456.7,446.5z M456.1,441.8 M456.1,442.7 M456.3,443.3 M457.3,452.6 M457.5,424.1 M457.5,424.9
			 M457.5,427.1 M457.5,446.9c0.2-0.1,0.6,0,0.6-0.4C457.9,446.7,457.5,446.5,457.5,446.9z M459.1,447.7c-0.5,0.1-1.1,0-1,0.7
			C458.7,448.4,459,448.2,459.1,447.7z M458.1,450.8c0.1,0,0.2,0,0.4,0C458.5,450.9,458.2,451.2,458.1,450.8z M460.3,447.7
			c0.2-0.7,2.4-1.8,1-2.4c-0.1,2.1-2-0.1-2.7-0.2c0,0.6,0,1.2,0,1.8C459.3,447,459.5,447.6,460.3,447.7z M460.3,444.5
			c-0.4-0.2-0.8-0.5-1.5-0.4c-0.1-0.5-0.4,0,0,0C458.5,445.2,460.3,445.4,460.3,444.5z M458.7,441.8 M459.9,450.5c0,0.2,0,0.5,0,0.6
			C459.7,451.1,459.5,450.6,459.9,450.5z M459.9,443.6c0.1,0.4,0.6,0.4,0.7,0C460.3,443.6,460.1,443.1,459.9,443.6z M460.6,441.4
			 M460.9,443.3c-0.5,0.8,1.3,0.8,1,0c1.2,0.2,0-1,0,0C461.4,443.3,461.2,443.3,460.9,443.3z M463,444.2c-0.2,0.2-0.7,0.4-1.2,0.4
			c-0.2-0.5-0.4,0,0,0c0.2,0.6,0.8,1.2,1.4,0.6C463.3,444.6,463,444.5,463,444.2c0.4,0,0.1-0.2,0-0.2c0-0.2,0.2-0.4,0.2-0.6
			c-0.6-0.2-1.3,0.7-0.2,0.6C463,443.9,463,444,463,444.2z M461.8,417.8 M461.8,454.1c0.1-0.5,0.4-0.7,0.8-0.7
			C462.5,453.9,462.3,454.1,461.8,454.1z M462,416.8 M462,449.6 M463.6,449.9c-0.6,0-0.7-0.5-0.6-1.2
			C463.8,448.3,463.5,449.4,463.6,449.9z M463.6,444.2c0.2,0,0.6,0,0.6-0.2C463.9,443.9,463.6,443.9,463.6,444.2z M463.6,451.1
			 M463.8,445.1c0.4-0.1,0.5,0.4,0.6,0C464.4,444.8,463.9,444.8,463.8,445.1z M464.2,453.4 M464.8,419.8c0.2,0,0.6,0,0.6-0.2
			C465.1,419.7,464.8,419.6,464.8,419.8z M465.4,448.1c0.2-0.1,0.6,0,0.6-0.4C465.7,447.8,465.4,447.8,465.4,448.1z M465.6,419.2
			 M466.3,448.4 M466.6,450.2 M467.5,443c0-0.2,0-0.4,0-0.6c-0.2,0-0.5,0-0.6,0c0,0.2,0,0.4,0,0.6C467,443,467.3,443,467.5,443z
			 M468.7,444.8c-0.7,0.2-1.7,0.2-1.8,1C467.7,445.7,468.8,445.8,468.7,444.8z M468.3,423.7c-0.8-0.1-1.5,1.3-0.8,1.5
			C467.5,424.6,468.5,424.7,468.3,423.7z M467.5,443.6 M467.7,446.3c0,0.2,0.6,0.4,0.6,0C468,446.3,467.9,445.8,467.7,446.3z
			 M468.3,448.4c0-0.5,0.1-1.1-0.6-1c0,0.2,0,0.4,0,0.6C468.1,448.1,468.1,448.3,468.3,448.4z M468.1,419.6 M468.3,424.9
			c0.1,0.4,0.4,0.2,0.6,0C468.9,424.7,468.5,424.6,468.3,424.9z M468.7,443.3c0.2-0.1,0.6-0.1,0.6-0.4
			C469.1,443.1,468.7,443,468.7,443.3z M468.7,443.6 M468.9,423.1C468.6,423.4,469.1,423.5,468.9,423.1c0.2,0.1,0.4-0.1,0.4-0.2
			c0.5,0,1.5-0.8,0.6-1.2c-0.1,0.5-1,0.2-0.6,1.2C469.1,422.8,468.9,423,468.9,423.1z M468.9,416.2 M468.9,446.5 M468.9,453.8
			 M469.3,427.1c0.2,0,0.6,0,0.6-0.2C469.6,426.8,469.3,426.8,469.3,427.1z M469.3,452.2c0.2,0,0.6,0,0.6-0.2
			C469.6,452,469.3,452,469.3,452.2z M469.5,441.4 M469.5,445.7 M469.5,448.1 M470.7,443.3C470.4,443.5,470.8,443.7,470.7,443.3
			c0.4,0,0.7,0,1,0c0-0.2,0-0.5,0-0.6c-0.2,0-0.6,0-1,0c0-0.1,0-0.2,0-0.4c-0.2,0-0.2-0.1-0.2-0.4c-0.2,0-0.4,0-0.6,0
			c-0.1,0.7,0.4,0.6,0.8,0.7C470.7,442.9,470.7,443.1,470.7,443.3z M470.1,448.7c1.2,0.1,2.6-2.1,1-2.1
			C471.8,447.7,470.5,447.7,470.1,448.7C469.8,448.9,470.2,449,470.1,448.7z M470.1,445.4c0.2,0,0.6,0,0.6-0.2
			C470.5,445.1,470.1,445.1,470.1,445.4z M471.7,452.6c-0.5-0.8,0.2-2.9-1-3c0.6,1.5-1.3,2.7,0,3.8
			C470.6,452.7,470.8,452.4,471.7,452.6z M470.7,424.1 M471.1,420.5C470.6,420.6,471.1,420.9,471.1,420.5c0.2,0,0.2-0.1,0.4-0.4
			c0.5-0.7,1.2-1.2,2-1.5c-0.5-0.4,1-1.4,1.2-2c-2.1-0.1-1.7,2.3-3.6,2.4c0,0.5,0.4,0.6,0.4,1.2
			C471.1,420.2,471.1,420.3,471.1,420.5z M472,445.1C470.7,444.8,471.9,445.9,472,445.1c1,0.2,1-0.5,0.8-1.2c0.2-0.4,1.1-0.1,1-1
			c-0.4,0-0.6,0-1,0c0,0.4,0,0.6,0,1C472,443.8,471.9,444.3,472,445.1z M471.7,418 M471.7,450.8 M472,423.5 M472.3,449.9
			 M472.3,451.4 M472.6,451.6 M472.9,442.7c0.2-0.1,0.6-0.1,0.6-0.4C473.2,442.5,472.9,442.4,472.9,442.7z M474,423.1
			c-0.4-2.1,1.8-1.7,2.4-2.6c-1.2-0.5-1.4,0-3,0C474,421.6,472.9,422.7,474,423.1z M475.6,448.1c-0.4,0-0.8,0-1.2,0
			c0.6,1.9-1.8,3.1-0.4,3.9C473.9,449.7,475.8,449.6,475.6,448.1z M474,418c-0.2,0.4-0.4,0.8-0.2,1.5C474.8,419.7,475,418.1,474,418
			z M474.4,424.7c-0.5,0.5-0.5,1.2,0.6,0.8C475,425,474.8,424.8,474.4,424.7z M475,415.1c0,0.2-0.1,0.2-0.4,0.4
			C474.6,415.2,474.8,415.1,475,415.1z M475,446.3 M476.4,447.5c-0.7-0.1-0.5-1.1-1.4-1c0,0.5,0,0.8,0,1.2
			C475.3,447.6,476.5,448.1,476.4,447.5z M475.6,419.8 M476.2,444.8c0,0.5-0.5,0.4-0.6,0.6C475.9,446.1,477,445,476.2,444.8z
			 M476.8,443c-0.5,0-1.1,0-1,0.6C476.4,443.6,476.7,443.3,476.8,443z M476.2,448.1c0,0.4-0.6,0.7,0,1
			C476.2,448.7,476.7,448.3,476.2,448.1z M477.1,426.2c-0.8-0.2-0.6,0.6-1,0.8C476.8,427.2,477.1,426.8,477.1,426.2z M477.4,418
			c0-0.1,0-0.4,0-0.6c-0.2,0-0.4,0-0.6,0c0,0.2,0,0.5,0,0.6C477,418,477.1,418,477.4,418z M477.7,420.2c0,0.8-0.7,1-0.6,1.8
			C478.8,422.1,478.7,420.8,477.7,420.2z M477.1,419.6 M477.7,441.4c0,0.4,0.2,0.2,0.6,0C478.3,441.2,477.7,441.1,477.7,441.4z
			 M478.3,447.1C478.7,447,478.2,446.8,478.3,447.1C477.8,447.4,478.3,447.5,478.3,447.1z M478.3,419.6c0,0.7,0.1,1.4,1.2,1.2
			C479.4,420,479,419.6,478.3,419.6z M478.3,453.2c0.2-0.1,0.6,0,0.6-0.4C478.7,453,478.3,452.8,478.3,453.2z M478.9,427.1
			 M481.9,426.8c0.2-0.1,0.6,0,0.6-0.4C482.2,426.6,481.9,426.5,481.9,426.8z M482.5,421.1 M482.5,421.1 M484.6,424.9
			c-1.2,0.4-1.7-1.3-2.1,0C482.7,425.3,484.4,425.6,484.6,424.9z M483.4,426.2 M484,417.4 M484.6,418 M487.2,423.5
			c-0.6-0.2-1.2-1.1-1.4,0C486.3,423.8,487,424.6,487.2,423.5z M486.4,416 M486.4,424.7 M486.6,418 M487.2,416.2
			c0.2,0,0.6,0,0.6-0.2C487.7,416,487.2,416,487.2,416.2z M487.8,415.4 M488.8,417.8c0,0.4-1.2,0.8-0.2,1.2
			C488.4,418.6,489.7,418,488.8,417.8z M488.2,416 M488.2,417.8 M490,423.5c-1,0.2-0.6,0.2-1.4,0c-0.2,0.6,0.5,0.4,0.6,0.8
			c-0.2,0.2-0.5,0.8,0,1c0-1.3,1.8-0.8,1.8-2.1c-0.6-0.1-0.5-0.8-1-1.2c-0.5-1.3,0.6-2.6-0.8-2.7c1,1.3-1.2,2.6,0,3.9
			c0.2-0.4,0.2-1.1,0.8-1.2C490,422.4,490,423,490,423.5z M488.8,415.1 M488.8,426.5c0.7,0.5,0.8-1.1,0.4-1
			c-0.1,0.2-0.1,0.4-0.4,0.4C488.8,426.1,488.8,426.2,488.8,426.5z M489.7,416.2c0.4,0.8-0.8,1.5,0,1.8
			C489.8,417.4,490.7,416.5,489.7,416.2z M489.7,419 M490.3,414.8 M490.3,420.5 M491.5,421.9c-0.1,0-0.2,0-0.4,0
			c0.4-1.9-0.8-0.6,0,0C491.3,422.3,491.5,422.2,491.5,421.9c0.2,0,0.2-0.4,0.2-0.6c0.5-0.1,0.6,0.4,1,0.4c0.1-2.1,1.2-3.4,2.4-4.5
			c-0.6-0.2-1-1.4-1.8-0.6c-0.4,1,0.5,0.7,0.6,1.2c-1.5,0.4-1.1,2.7-2.1,3.6C491.5,421.4,491.5,421.7,491.5,421.9z M493.5,424.7
			c0.1-0.4,0.5-0.4,1-0.4c-0.1-1.1,0.8-1.1,1-2c-0.6-0.1-0.8-0.7-1.5-0.6c0.7,1.7-1.7,0-1.5,2C493.1,423.8,493.2,424.3,493.5,424.7z
			 M492.3,425.9 M494.2,419.6 M494.5,417.8 M496.3,420.5c0.7-0.5,0.4-1.3,0.6-1.5c1.4-0.5,1.1,0.2,2.4,0.2c-0.4-1-1.1-1.5-2.4-1.8
			c0,1.7-2.3,1-2,2.7C495.5,420,495.4,420.8,496.3,420.5z M495.4,421.4c0-0.2,0-0.4,0-0.6c-0.2,0-0.5,0-0.6,0c0,0.2,0,0.4,0,0.6
			C495,421.4,495.2,421.4,495.4,421.4z M496.3,423.7 M496.3,432.2 M496.6,417.2 M496.6,422.9c0.4-0.1,0.5,0.4,0.6,0
			C497.2,422.5,496.6,422.5,496.6,422.9z M497.2,426.5c0.2,0,0.6,0,0.6-0.2C497.6,426.2,497.2,426.2,497.2,426.5z M498.4,415.4
			 M498.6,439.6c-0.5,0.7,1.1,1,1,0.4C499.2,440,499.2,439.6,498.6,439.6z M500.5,430c-0.5,0.5-1,1-1.3,1.5
			C500.1,431.6,501.2,430.5,500.5,430z M500.5,431.6c0,0.4,0.2,0.2,0.6,0C501.1,431.2,500.5,431.2,500.5,431.6z M500.8,434.3
			c0.2-0.1,0.6,0,0.6-0.4C501.1,434.1,500.8,433.9,500.8,434.3z M501.4,429.4c0.5,0,1.5-0.8,0.6-1.2
			C502,428.8,501.1,428.6,501.4,429.4C500.9,429.7,501.4,429.8,501.4,429.4z M501.4,440.2c0.4,0,0.8,0.1,1-0.2
			C502,440,501.5,439.9,501.4,440.2z M501.7,433.7 M502.9,430.6 M504.1,444.8c-0.2,0-0.4,0-0.6,0c0,0.4-0.2,0.4-0.4,0.6
			C503.6,445.4,504.2,445.5,504.1,444.8z M503.1,479c0.2,0,0.6,0,0.6-0.2C503.5,478.7,503.1,478.7,503.1,479z M503.1,479.9
			 M506.8,423.1c-1.4,0.6-3.6,2.1-3.1,3.7C505.1,425.3,505.9,425,506.8,423.1z M503.7,417.4 M503.7,424.7 M503.7,435.7 M504.7,478.4
			C506,478.5,504.8,477.2,504.7,478.4C504.2,478.6,504.7,478.7,504.7,478.4z M504.7,420.2 M505.3,436.7 M505.6,416.8 M505.6,421.4
			 M505.6,426.8 M506.2,424.7c0.1,1-0.7,1.2,0.2,1.5C506.6,425.5,507.2,424.9,506.2,424.7z M507.1,434.9c-0.5,0-1.1-0.1-0.8,0.6
			C506.7,435.5,507,435.3,507.1,434.9z M507.1,431.6c-0.5-1-1.4,1,0,0.6C507.1,431.9,507.1,431.8,507.1,431.6z M508,421.7
			c-0.8,0.2-0.8-0.5-1.5-0.4c0.1,0.7,0.7,1,1,1.5C507.4,422.3,508.3,422.5,508,421.7z M506.8,419 M507.1,419.6 M507.1,437.6
			c0,0.2,0.6,0.4,0.6,0C507.3,437.6,507.2,437.2,507.1,437.6z M508.6,438.8c-0.5,0-1.1-0.1-1,0.6
			C508.3,439.4,508.5,439.2,508.6,438.8z M507.7,426.5 M508,428.8"/>
	</g>
	<path class="st0" d="M321.7,155.4c18.7-9.9,27.7-29.6,26.7-52.1c-1.9-43.1-36.6-58.1-74.4-56.5l-74.3,3.3l27.2,23.8l48.3-2.1
		c19.4-0.9,47,5.4,48.3,34c0.9,21.6-9.1,39.2-39.6,40.5L243,148l26.1,22.8l4.6-0.2c26.4-1.2,64.9,5.6,66.4,40.6
		c1.5,33.3-29.9,44.5-54.3,45.6l-50.8,2.2l-0.9-20.4l-26.4,1.2l2,46.3l77.2-3.4c47-2.1,80.7-25.2,78.6-72.6
		C364.3,184.2,346.8,161,321.7,155.4"/>
	<path class="st0" d="M435.6,167.6c0,92.2-74.5,166.9-166.3,166.9c-91.8,0-166.3-74.8-166.3-167c0-92.1,74.3-166.9,166.1-167
		c-4.8-0.4-9.6-0.6-14.5-0.6C154.3,0,72.9,82.3,72.9,183.9s81.3,183.9,181.7,183.9c100.3,0,181.7-82.3,181.7-183.9
		C436.3,178.4,436,173,435.6,167.6"/>
</g>
</svg>
